<?xml version="1.0" encoding="UTF-8"?>
<svg id="Capa_4" data-name="Capa 4" xmlns="http://www.w3.org/2000/svg" viewBox="0 0 76 76">
  <defs>
    <style>
      .cls-1 {
        fill: #e4f1fc;
      }

      .cls-2 {
        fill: #1169c1;
      }
    </style>
  </defs>
  <rect class="cls-1" y="0" width="76" height="76" rx="11.24" ry="11.24"/>
  <g id="g3664">
    <g id="g3670">
      <g id="path3672">
        <path class="cls-2" d="M41.76,64H20.81c-.42,0-.76-.34-.76-.76V28.34c0-1.31,.83-2.47,2.07-2.88l19.4-6.52c.23-.08,.49-.04,.69,.1,.2,.14,.32,.37,.32,.62V63.24c0,.42-.34,.76-.76,.76Zm-20.18-1.53h19.42V20.72l-18.39,6.18c-.62,.21-1.03,.78-1.03,1.43V62.47Z"/>
      </g>
    </g>
    <g id="g3674">
      <g id="path3676">
        <path class="cls-2" d="M53.55,64h-11.79c-.42,0-.76-.34-.76-.76v-23.64c0-.42,.34-.76,.76-.76h13.01c1.28,0,2.33,1.04,2.33,2.33v12.51c0,.42-.34,.76-.76,.76s-.76-.34-.76-.76v-12.51c0-.44-.36-.8-.8-.8h-12.24v22.11h10.26v-3.61c0-.42,.34-.76,.76-.76s.76,.34,.76,.76v4.38c0,.42-.34,.76-.76,.76Z"/>
      </g>
    </g>
    <g id="g3678">
      <g id="path3680">
        <path class="cls-2" d="M60.72,64h-18.96c-.42,0-.76-.34-.76-.76v-4.38c0-.42,.34-.76,.76-.76h20.02c.42,0,.76,.34,.76,.76v3.32c0,1.01-.82,1.82-1.82,1.82Zm-18.2-1.53h18.2c.16,0,.29-.13,.29-.29v-2.55h-18.49v2.85Z"/>
      </g>
    </g>
    <g id="g3682">
      <g id="path3684">
        <path class="cls-2" d="M61.78,59.62h-8.23c-.42,0-.76-.34-.76-.76v-1.44c0-2.58,2.1-4.68,4.68-4.68h.4c2.58,0,4.68,2.1,4.68,4.68v1.44c0,.42-.34,.76-.76,.76Zm-7.47-1.53h6.7v-.68c0-1.74-1.41-3.15-3.15-3.15h-.4c-1.74,0-3.15,1.41-3.15,3.15v.68Z"/>
      </g>
    </g>
    <g id="g3686">
      <g id="path3688">
        <path class="cls-2" d="M20.81,64h-4.6c-1.01,0-1.82-.82-1.82-1.82v-3.32c0-.42,.34-.76,.76-.76h5.65c.42,0,.76,.34,.76,.76v4.38c0,.42-.34,.76-.76,.76Zm-4.89-4.38v2.55c0,.16,.13,.29,.29,.29h3.83v-2.85h-4.12Z"/>
      </g>
    </g>
    <g id="g3690">
      <g id="path3692">
        <path class="cls-2" d="M20.81,59.62h-5.65c-.42,0-.76-.34-.76-.76v-.26c0-3.23,2.63-5.87,5.87-5.87h.55c.42,0,.76,.34,.76,.76v5.36c0,.42-.34,.76-.76,.76Zm-4.86-1.53h4.09v-3.82c-2.12,.1-3.85,1.74-4.09,3.82Z"/>
      </g>
    </g>
    <g id="g3694">
      <g id="path3696">
        <path class="cls-2" d="M49.04,40.36h-7.28c-.42,0-.76-.34-.76-.76V19.66c0-.31,.18-.58,.47-.7,.28-.12,.61-.06,.83,.15l6.59,6.37c.59,.57,.93,1.37,.93,2.19v8.61c0,.42-.34,.76-.76,.76s-.76-.34-.76-.76v-8.61c0-.41-.17-.8-.46-1.09l-5.29-5.12v17.36h6.52c.42,0,.76,.34,.76,.76s-.34,.76-.76,.76Z"/>
      </g>
    </g>
    <g id="g3698">
      <g id="path3700">
        <path class="cls-2" d="M25.93,25.74c-.42,0-.76-.34-.76-.76v-4.75c0-1.23,1-2.23,2.23-2.23h.15c1.23,0,2.23,1,2.23,2.23v3.72c0,.42-.34,.76-.76,.76s-.76-.34-.76-.76v-3.72c0-.38-.31-.7-.7-.7h-.15c-.39,0-.7,.31-.7,.7v4.75c0,.42-.34,.76-.76,.76Z"/>
      </g>
    </g>
    <g id="g3702">
      <g id="path3704">
        <path class="cls-2" d="M25.93,31.06c-.32,0-.62-.2-.72-.52-.13-.4,.08-.83,.48-.97l15.82-5.32c.4-.13,.83,.08,.97,.48,.13,.4-.08,.83-.48,.97l-15.82,5.32c-.08,.03-.16,.04-.24,.04Z"/>
      </g>
    </g>
    <g id="g3706">
      <g id="path3708">
        <path class="cls-2" d="M25.93,36.13c-.32,0-.62-.2-.72-.52-.13-.4,.08-.83,.48-.97l15.82-5.32c.4-.13,.83,.08,.97,.48,.13,.4-.08,.83-.48,.97l-15.82,5.32c-.08,.03-.16,.04-.24,.04Z"/>
      </g>
    </g>
    <g id="g3710">
      <g id="path3712">
        <path class="cls-2" d="M25.93,41.19c-.32,0-.62-.2-.72-.52-.13-.4,.08-.83,.48-.97l15.82-5.32c.4-.13,.83,.08,.97,.48,.13,.4-.08,.83-.48,.97l-15.82,5.32c-.08,.03-.16,.04-.24,.04Z"/>
      </g>
    </g>
    <g id="g3714">
      <g id="path3716">
        <path class="cls-2" d="M25.93,46.26c-.32,0-.62-.2-.72-.52-.13-.4,.08-.83,.48-.97l15.82-5.32c.4-.13,.83,.08,.97,.48,.13,.4-.08,.83-.48,.97l-15.82,5.32c-.08,.03-.16,.04-.24,.04Z"/>
      </g>
    </g>
    <g id="g3718">
      <g id="path3720">
        <path class="cls-2" d="M25.93,51.32c-.32,0-.62-.2-.72-.52-.13-.4,.08-.83,.48-.97l2.61-.88c.4-.13,.83,.08,.97,.48,.13,.4-.08,.83-.48,.97l-2.61,.88c-.08,.03-.16,.04-.24,.04Z"/>
      </g>
    </g>
    <g id="g3722">
      <g id="path3724">
        <path class="cls-2" d="M31.7,49.38c-.32,0-.62-.2-.72-.52-.13-.4,.08-.83,.48-.97l10.06-3.38c.4-.13,.83,.08,.97,.48,.13,.4-.08,.83-.48,.97l-10.06,3.38c-.08,.03-.16,.04-.24,.04Z"/>
      </g>
    </g>
    <g id="g3726">
      <g id="path3728">
        <path class="cls-2" d="M34.27,64h-8.34c-.42,0-.76-.34-.76-.76v-5.98c0-.8,.54-1.52,1.31-1.73l6.55-1.83c.48-.13,.98-.04,1.38,.26,.4,.3,.63,.76,.63,1.26v8.01c0,.42-.34,.76-.76,.76Zm-7.57-1.53h6.81v-7.25s0-.03-.02-.04c-.02-.02-.04-.01-.04,0l-6.55,1.83c-.12,.03-.2,.14-.2,.26v5.21Z"/>
      </g>
    </g>
    <g id="g3730">
      <g id="path3732">
        <path class="cls-2" d="M52.44,46.16h-6.9c-.69,0-1.25-.56-1.25-1.25v-1.69c0-.69,.56-1.25,1.25-1.25h6.9c.69,0,1.25,.56,1.25,1.25v1.69c0,.69-.56,1.25-1.25,1.25Zm-6.62-1.53h6.34v-1.13h-6.34v1.13Z"/>
      </g>
    </g>
    <g id="g3734">
      <g id="path3736">
        <path class="cls-2" d="M52.44,51.51h-6.9c-.69,0-1.25-.56-1.25-1.25v-1.69c0-.69,.56-1.25,1.25-1.25h6.9c.69,0,1.25,.56,1.25,1.25v1.69c0,.69-.56,1.25-1.25,1.25Zm-6.62-1.53h6.34v-1.13h-6.34v1.13Z"/>
      </g>
    </g>
    <g id="g3738">
      <g id="path3740">
        <path class="cls-2" d="M47.83,56.92h-2.28c-.69,0-1.25-.56-1.25-1.25v-1.69c0-.69,.56-1.25,1.25-1.25h2.28c.69,0,1.25,.56,1.25,1.25v1.69c0,.69-.56,1.25-1.25,1.25Zm-2-1.53h1.72v-1.13h-1.72v1.13Z"/>
      </g>
    </g>
    <g id="g3742">
      <g id="path3744">
        <path class="cls-2" d="M30.1,64c-.42,0-.76-.34-.76-.76v-7.93c0-.42,.34-.76,.76-.76s.76,.34,.76,.76v7.93c0,.42-.34,.76-.76,.76Z"/>
      </g>
    </g>
  </g>
</svg>