<?xml version="1.0" encoding="UTF-8"?>
<svg id="Capa_3" data-name="Capa 3" xmlns="http://www.w3.org/2000/svg" viewBox="0 0 22.77 18.3">
  <defs>
    <style>
      .cls-1 {
        fill: #fff;
      }
    </style>
  </defs>
  <path class="cls-1" d="M11.38,0c2.04,0,4.08-.01,6.12,0,1.46,0,2.73,.53,3.75,1.58,.93,.96,1.44,2.11,1.48,3.45,.06,2.61,.02,5.21,.03,7.82,0,1.35-.38,2.56-1.27,3.59-1.03,1.19-2.34,1.82-3.9,1.83-4.14,.02-8.27,.03-12.41,0-2.64-.02-4.83-2.03-5.13-4.64-.03-.27-.04-.54-.04-.81C0,10.38,0,7.92,0,5.47c0-1.35,.37-2.58,1.27-3.62C2.31,.64,3.65,.03,5.24,.01c2.05-.02,4.1,0,6.15,0Zm-.02,16.78c1.95,0,3.89,0,5.84,0,.26,0,.52-.01,.79-.04,1.74-.18,3.21-1.7,3.24-3.44,.03-2.77,.01-5.55,0-8.32,0-.45-.13-.88-.32-1.29-.14-.31-.15-.31-.39-.07-1.9,1.9-3.8,3.8-5.7,5.7-.97,.97-2.16,1.47-3.53,1.44-1.36-.02-2.5-.58-3.46-1.55-1.47-1.49-2.96-2.97-4.44-4.45-.41-.41-.82-.81-1.22-1.22-.13-.13-.2-.11-.27,.05-.21,.45-.36,.91-.36,1.4,0,2.76,0,5.52,0,8.27,0,.63,.2,1.21,.53,1.74,.74,1.17,1.82,1.76,3.2,1.78,2.03,.02,4.07,0,6.1,0Zm.02-15.28c-2.03,0-4.07,0-6.1,0-.74,0-1.43,.2-2.06,.59-.19,.12-.2,.19-.04,.35,1.95,1.94,3.89,3.89,5.84,5.83,1.32,1.32,3.38,1.32,4.71,0,1.96-1.94,3.9-3.9,5.85-5.85,.16-.16,.12-.23-.04-.33-.63-.4-1.32-.6-2.06-.6-2.03,0-4.07,0-6.1,0Z"/>
</svg>