<?xml version="1.0" encoding="UTF-8"?>
<svg id="Capa_3" data-name="Capa 3" xmlns="http://www.w3.org/2000/svg" viewBox="0 0 76 76">
  <defs>
    <style>
      .cls-1 {
        fill: #e4f1fc;
      }

      .cls-2 {
        fill: #1169c1;
      }
    </style>
  </defs>
  <rect class="cls-1" width="76" height="76" rx="11.24" ry="11.24"/>
  <g id="Layer_21" data-name="Layer 21">
    <path class="cls-2" d="M20.68,37c-3.54,0-6.42,2.87-6.42,6.42s2.87,6.42,6.42,6.42,6.42-2.87,6.42-6.42c0-3.54-2.87-6.41-6.42-6.42Zm0,1.83c1.82,0,3.47,1.08,4.2,2.76l-1.72,1.72c-.36,.35-.93,.35-1.3,0l-1.07-1.07c-1.09-1.04-2.8-1.04-3.89,0l-.76,.76c.21-2.35,2.18-4.15,4.54-4.16Zm0,9.17c-1.82,0-3.47-1.08-4.2-2.76l1.72-1.72c.36-.35,.93-.35,1.3,0l1.07,1.07c1.09,1.04,2.8,1.04,3.89,0l.76-.76c-.21,2.35-2.18,4.15-4.54,4.16Z"/>
    <path class="cls-2" d="M67.43,51.67h-.17c.11-.29,.17-.6,.17-.92V30.58c0-1.52-1.23-2.75-2.75-2.75h-14.67c-.68,0-1.33,.26-1.83,.72-.5-.46-1.15-.71-1.83-.72h-2.8c.13-.64-.02-1.31-.41-1.83,.62-.81,.61-1.94-.01-2.75,.62-.81,.63-1.94,.01-2.75,.76-1.01,.55-2.45-.46-3.21-.4-.3-.88-.46-1.38-.46h-6.87c-2.02,0-3.66,1.62-3.67,3.63,0,1.07,.46,2.08,1.27,2.78-1.35,1.15-1.66,3.11-.73,4.62-.54,.08-1.05,.31-1.45,.68-.5-.46-1.15-.71-1.83-.72h-2c.11-.29,.17-.6,.17-.92v-5.5c0-1.16-.74-2.19-1.83-2.58v-1.09c0-1.52-1.23-2.75-2.75-2.75s-2.75,1.23-2.75,2.75v1.09c-1.09,.39-1.83,1.42-1.83,2.58v5.5c0,.31,.06,.62,.17,.92h-3.84c-1.52,0-2.75,1.23-2.75,2.75v20.17c0,.31,.06,.62,.17,.92h-.17c-.51,0-.92,.41-.92,.92v5.5c0,.51,.41,.92,.92,.92h56.83c.51,0,.92-.41,.92-.92v-5.5c0-.51-.41-.92-.92-.92Zm-17.42-22h14.67c.51,0,.92,.41,.92,.92v2.75h-2.75c-.51,0-.92,.41-.92,.92s.41,.92,.92,.92h2.75v15.58c0,.51-.41,.92-.92,.92h-14.67c-.51,0-.92-.41-.92-.92v-15.58h10.08c.51,0,.92-.41,.92-.92s-.41-.92-.92-.92h-10.08v-2.75c0-.51,.41-.92,.92-.92Zm-17.42-9.17c0-1.01,.82-1.83,1.83-1.83h6.88c.25,0,.46,.21,.46,.46s-.21,.46-.46,.46h-5.96c-.51,0-.92,.41-.92,.92s.41,.92,.92,.92h5.96c.25,0,.46,.21,.46,.46s-.21,.46-.46,.46h-6.88c-1.01,0-1.83-.82-1.83-1.83Zm8.71,3.67c.25,0,.46,.21,.46,.46s-.21,.46-.46,.46h-5.96c-.51,0-.92,.41-.92,.92s.41,.92,.92,.92h5.96c.25,0,.46,.21,.46,.46s-.21,.46-.46,.46h-6.88c-1.01,0-1.83-.82-1.83-1.83s.82-1.83,1.83-1.83h6.88Zm-9.62,5.5h14.67c.51,0,.92,.41,.92,.92v2.75h-2.75c-.51,0-.92,.41-.92,.92s.41,.92,.92,.92h2.75v15.58c0,.51-.41,.92-.92,.92h-14.67c-.51,0-.92-.41-.92-.92v-15.58h10.08c.51,0,.92-.41,.92-.92s-.41-.92-.92-.92h-10.08v-2.75c0-.51,.41-.92,.92-.92Zm-11-11.92c0-.51,.41-.92,.92-.92s.92,.41,.92,.92v.92h-1.83v-.92Zm-1.83,9.17v-5.5c0-.51,.41-.92,.92-.92h3.67c.51,0,.92,.41,.92,.92v5.5c0,.51-.41,.92-.92,.92h-3.67c-.51,0-.92-.41-.92-.92Zm-6.42,23.83v-15.58h10.08c.51,0,.92-.41,.92-.92s-.41-.92-.92-.92H12.43v-2.75c0-.51,.41-.92,.92-.92h14.67c.51,0,.92,.41,.92,.92v2.75h-2.75c-.51,0-.92,.41-.92,.92s.41,.92,.92,.92h2.75v15.58c0,.51-.41,.92-.92,.92H13.34c-.51,0-.92-.41-.92-.92Zm54.08,6.42H11.51v-3.67h55v3.67Z"/>
    <path class="cls-2" d="M18.84,30.58h-3.67c-.51,0-.92,.41-.92,.92s.41,.92,.92,.92h3.67c.51,0,.92-.41,.92-.92s-.41-.92-.92-.92Z"/>
    <path class="cls-2" d="M24.34,32.42h1.83c.51,0,.92-.41,.92-.92s-.41-.92-.92-.92h-1.83c-.51,0-.92,.41-.92,.92s.41,.92,.92,.92Z"/>
    <path class="cls-2" d="M39.01,37c-3.54,0-6.42,2.87-6.42,6.42s2.87,6.42,6.42,6.42,6.42-2.87,6.42-6.42c0-3.54-2.87-6.41-6.42-6.42Zm0,1.83c1.82,0,3.47,1.08,4.2,2.76l-1.72,1.72c-.36,.35-.93,.35-1.3,0l-1.07-1.07c-1.09-1.04-2.8-1.04-3.89,0l-.76,.76c.21-2.35,2.18-4.15,4.54-4.16Zm0,9.17c-1.82,0-3.47-1.08-4.2-2.76l1.72-1.72c.36-.35,.93-.35,1.3,0l1.07,1.07c1.09,1.04,2.8,1.04,3.89,0l.76-.76c-.21,2.35-2.18,4.15-4.54,4.16Z"/>
    <path class="cls-2" d="M33.51,32.42h3.67c.51,0,.92-.41,.92-.92s-.41-.92-.92-.92h-3.67c-.51,0-.92,.41-.92,.92s.41,.92,.92,.92Z"/>
    <path class="cls-2" d="M42.68,32.42h1.83c.51,0,.92-.41,.92-.92s-.41-.92-.92-.92h-1.83c-.51,0-.92,.41-.92,.92s.41,.92,.92,.92Z"/>
    <path class="cls-2" d="M57.34,37c-3.54,0-6.42,2.87-6.42,6.42s2.87,6.42,6.42,6.42,6.42-2.87,6.42-6.42c0-3.54-2.87-6.41-6.42-6.42Zm0,1.83c1.82,0,3.47,1.08,4.2,2.76l-1.72,1.72c-.36,.35-.93,.35-1.3,0l-1.07-1.07c-1.09-1.04-2.8-1.04-3.89,0l-.76,.76c.21-2.35,2.18-4.15,4.54-4.16Zm0,9.17c-1.82,0-3.47-1.08-4.2-2.76l1.72-1.72c.36-.35,.93-.35,1.3,0l1.07,1.07c1.09,1.04,2.8,1.04,3.89,0l.76-.76c-.21,2.35-2.18,4.15-4.54,4.16Z"/>
    <path class="cls-2" d="M51.84,32.42h3.67c.51,0,.92-.41,.92-.92s-.41-.92-.92-.92h-3.67c-.51,0-.92,.41-.92,.92s.41,.92,.92,.92Z"/>
    <path class="cls-2" d="M61.01,32.42h1.83c.51,0,.92-.41,.92-.92s-.41-.92-.92-.92h-1.83c-.51,0-.92,.41-.92,.92s.41,.92,.92,.92Z"/>
  </g>
</svg>