<?xml version="1.0" encoding="UTF-8"?>
<svg id="Capa_3" data-name="Capa 3" xmlns="http://www.w3.org/2000/svg" viewBox="0 0 27.95 27.92">
  <defs>
    <style>
      .cls-1 {
        fill: #fff;
      }
    </style>
  </defs>
  <path class="cls-1" d="M12.86,0C13.62,0,14.38,0,15.15,0c.34,.05,.68,.09,1.02,.14,5.26,.79,9.77,4.75,11.25,9.89,.26,.91,.42,1.84,.53,2.77v2.29c-.07,.49-.12,.99-.22,1.48-1.36,7.21-8.18,12.16-15.48,11.24-3.19-.41-5.95-1.75-8.18-4.06C.65,20.19-.7,15.92,.35,11.11,1.56,5.56,5.06,2.02,10.5,.42,11.27,.19,12.07,.1,12.86,0Zm.31,10.28c0-.85,0-1.71,0-2.56,0-.21-.07-.29-.28-.29-1.13,0-2.27,0-3.4,0-.2,0-.29,.08-.35,.26-.46,1.67-.72,3.36-.79,5.09,0,.25,.08,.33,.33,.33,1.39,0,2.78,0,4.16,0,.25,0,.33-.08,.33-.33-.01-.83,0-1.67,0-2.5Zm0,7.35c0-.85,0-1.71,0-2.56,0-.19-.05-.29-.26-.29-1.43,0-2.87,0-4.3,0-.19,0-.26,.08-.26,.26,0,.31,.03,.62,.05,.92,.1,1.42,.35,2.82,.72,4.2,.06,.22,.17,.3,.4,.3,1.1-.01,2.2,0,3.29,0,.34,0,.35-.01,.35-.36,0-.83,0-1.65,0-2.48Zm1.68-7.37c0,.85,0,1.71,0,2.56,0,.22,.08,.3,.3,.3,1.41,0,2.81,0,4.22,0,.22,0,.31-.08,.3-.3-.01-.52-.06-1.03-.11-1.54-.12-1.21-.35-2.4-.68-3.58-.05-.19-.15-.26-.35-.26-1.12,0-2.25,0-3.37,0-.24,0-.31,.09-.31,.32,0,.83,0,1.67,0,2.5Zm0,7.35c0,.85,0,1.71,0,2.56,0,.22,.08,.3,.3,.3,1.12,0,2.25,0,3.37,0,.19,0,.3-.06,.35-.25,.47-1.68,.72-3.38,.79-5.12,0-.24-.09-.31-.32-.31-1.4,0-2.79,0-4.19,0-.24,0-.31,.09-.31,.32,0,.83,0,1.67,0,2.5ZM4.19,13.11c.72,0,1.43,0,2.15,0,.21,0,.29-.07,.3-.28,.08-1.72,.29-3.43,.74-5.1,.06-.23,0-.3-.24-.3-1.06,0-2.12,.01-3.18,0-.26,0-.41,.08-.54,.31-.91,1.57-1.45,3.26-1.64,5.06-.03,.24,.05,.33,.3,.32,.71-.01,1.42,0,2.12,0Zm19.62,0c.63,0,1.25,0,1.88,0,.56,0,.57,0,.51-.55-.19-1.74-.75-3.35-1.63-4.86-.11-.19-.23-.27-.46-.26-1.08,.01-2.16,0-3.24,0-.3,0-.31,.02-.23,.32,.43,1.66,.65,3.34,.73,5.05,.01,.23,.08,.32,.32,.32,.71-.01,1.42,0,2.12,0Zm-19.61,1.68c-.72,0-1.43,0-2.15,0-.24,0-.3,.1-.28,.31,.19,1.82,.73,3.53,1.67,5.1,.11,.18,.23,.27,.45,.27,1.08-.01,2.16,0,3.24,0,.3,0,.31-.02,.24-.31-.43-1.66-.65-3.34-.73-5.05-.01-.26-.11-.32-.35-.32-.7,.01-1.4,0-2.1,0Zm19.61,0c-.71,0-1.42,0-2.12,0-.24,0-.31,.09-.32,.32-.08,1.7-.3,3.37-.72,5.02-.09,.33-.08,.34,.25,.34,1.05,0,2.1,0,3.16,0,.26,0,.41-.09,.54-.31,.91-1.57,1.45-3.26,1.64-5.06,.02-.22-.04-.32-.28-.32-.72,0-1.43,0-2.15,0ZM13.16,3.8c0-.58,0-1.16,0-1.74,0-.19-.06-.23-.23-.15-.31,.15-.61,.33-.87,.55-1,.84-1.62,1.93-2.16,3.09-.1,.21,.06,.2,.19,.2,.92,0,1.85,0,2.77,0,.22,0,.31-.08,.3-.3-.01-.55,0-1.11,0-1.66Zm1.68-.01c0,.56,0,1.12,0,1.69,0,.19,.05,.29,.26,.28,.94,0,1.88,0,2.83,0,.2,0,.24-.06,.16-.24-.41-.88-.88-1.73-1.53-2.46-.39-.44-.82-.82-1.35-1.08-.34-.17-.36-.16-.36,.21,0,.53,0,1.07,0,1.6Zm0,20.32c0,.54,0,1.09,0,1.63,0,.33,.02,.35,.31,.21,.28-.13,.54-.3,.77-.5,1-.84,1.63-1.93,2.17-3.09,.09-.19,0-.22-.16-.22-.93,0-1.87,0-2.8,0-.23,0-.3,.1-.29,.31,0,.55,0,1.11,0,1.66Zm-1.68,0c0-.55,0-1.11,0-1.66,0-.23-.07-.32-.31-.32-.92,.01-1.83,0-2.75,0-.27,0-.29,.03-.17,.28,.23,.5,.49,.99,.79,1.46,.56,.86,1.21,1.63,2.16,2.09,.2,.1,.28,.07,.27-.17,0-.56,0-1.12,0-1.69ZM9.66,2.5c-1.84,.67-3.41,1.74-4.76,3.22,.08,.02,.12,.03,.15,.03,.91,0,1.81,0,2.72,0,.18,0,.26-.09,.31-.24,.19-.49,.41-.97,.65-1.44,.28-.54,.6-1.05,.93-1.58Zm8.7-.03c-.04,.09,0,.12,.02,.15,.64,.89,1.13,1.86,1.53,2.87,.07,.19,.18,.26,.38,.26,.86,0,1.72,0,2.58,0,.06,0,.13,.03,.2-.07-1.32-1.44-2.89-2.51-4.72-3.22ZM4.91,22.14c.82,1.16,3.84,3.2,4.76,3.24,0-.02,0-.04,0-.05-.66-.93-1.18-1.93-1.59-2.99-.07-.17-.18-.2-.34-.2-.7,0-1.4,0-2.09,0-.22,0-.45,0-.72,0Zm18.21,.02c-.15,0-.23-.02-.31-.02-.82,0-1.65,0-2.47,0-.24,0-.35,.08-.44,.3-.39,1-.87,1.95-1.5,2.82-.03,.04-.08,.08-.02,.16,1.82-.7,3.39-1.77,4.75-3.26Z"/>
</svg>