<?xml version="1.0" encoding="UTF-8"?>
<svg id="Capa_4" data-name="Capa 4" xmlns="http://www.w3.org/2000/svg" viewBox="0 0 76 76">
  <defs>
    <style>
      .cls-1 {
        fill: #e4f1fc;
      }

      .cls-2 {
        fill: #1169c1;
      }
    </style>
  </defs>
  <rect class="cls-1" y="0" width="76" height="76" rx="11.24" ry="11.24"/>
  <g>
    <path class="cls-2" d="M41.89,63.58h-6.63c-.43,0-.78-.35-.78-.78s.35-.78,.78-.78h6.63c.43,0,.78,.35,.78,.78s-.35,.78-.78,.78Z"/>
    <path class="cls-2" d="M45.11,20.98h-13.07c-.43,0-.78-.35-.78-.78s.35-.78,.78-.78h13.07c.43,0,.78,.35,.78,.78s-.35,.78-.78,.78Z"/>
    <path class="cls-2" d="M34.31,65h-12.78c-.21,0-.41-.08-.55-.23l-2.84-2.84c-.15-.15-.23-.34-.23-.55v-22.72c0-.26,.13-.5,.35-.65l3.91-2.61v-15.2c0-.38,.28-.71,.65-.77l8.52-1.42c.36-.06,.72,.14,.85,.48l5.68,14.2c.04,.09,.06,.19,.06,.29v26.98c0,.15-.05,.3-.13,.43l-2.84,4.26c-.14,.22-.39,.35-.65,.35Zm-12.46-1.56h12.04l2.48-3.72v-26.59l-5.39-13.48-7.25,1.21v14.96c0,.26-.13,.5-.35,.65l-3.91,2.61v21.98l2.38,2.38Z"/>
    <path class="cls-2" d="M37.15,49.38h-8.45c-.43,0-.78-.35-.78-.78s.35-.78,.78-.78h7.67v-2.7H19.47v2.7h6.25c.43,0,.78,.35,.78,.78s-.35,.78-.78,.78h-7.03c-.43,0-.78-.35-.78-.78v-4.26c0-.43,.35-.78,.78-.78h18.46c.43,0,.78,.35,.78,.78v4.26c0,.43-.35,.78-.78,.78Z"/>
    <path class="cls-2" d="M37.15,57.9H18.69c-.43,0-.78-.35-.78-.78v-4.26c0-.43,.35-.78,.78-.78h18.46c.43,0,.78,.35,.78,.78v4.26c0,.43-.35,.78-.78,.78Zm-17.68-1.56h16.9v-2.7H19.47v2.7Z"/>
    <path class="cls-2" d="M32.89,39.44h-5.68c-.43,0-.78-.35-.78-.78v-2.84c0-.43,.35-.78,.78-.78h5.68c.43,0,.78,.35,.78,.78v2.84c0,.43-.35,.78-.78,.78Zm-4.9-1.56h4.12v-1.28h-4.12v1.28Z"/>
    <path class="cls-2" d="M55.61,65h-12.78c-.26,0-.5-.13-.65-.35l-2.84-4.26c-.09-.13-.13-.28-.13-.43v-26.98c0-.1,.02-.2,.06-.29l5.68-14.2c.14-.34,.49-.54,.85-.48l8.52,1.42c.38,.06,.65,.39,.65,.77v6.46c0,.43-.35,.78-.78,.78s-.78-.35-.78-.78v-5.8l-7.25-1.21-5.39,13.48v26.59l2.48,3.72h12.04l2.38-2.38v-21.98l-3.91-2.61c-.22-.14-.35-.39-.35-.65v-6.18c0-.43,.35-.78,.78-.78s.78,.35,.78,.78v5.76l3.91,2.61c.22,.14,.35,.39,.35,.65v22.72c0,.21-.08,.41-.23,.55l-2.84,2.84c-.15,.15-.34,.23-.55,.23Z"/>
    <path class="cls-2" d="M58.45,49.38h-18.46c-.43,0-.78-.35-.78-.78v-4.26c0-.43,.35-.78,.78-.78h18.46c.43,0,.78,.35,.78,.78v4.26c0,.43-.35,.78-.78,.78Zm-17.68-1.56h16.9v-2.7h-16.9v2.7Z"/>
    <path class="cls-2" d="M58.45,57.9h-7.03c-.43,0-.78-.35-.78-.78s.35-.78,.78-.78h6.25v-2.7h-16.9v2.7h7.67c.43,0,.78,.35,.78,.78s-.35,.78-.78,.78h-8.45c-.43,0-.78-.35-.78-.78v-4.26c0-.43,.35-.78,.78-.78h18.46c.43,0,.78,.35,.78,.78v4.26c0,.43-.35,.78-.78,.78Z"/>
    <path class="cls-2" d="M49.93,39.44h-5.68c-.43,0-.78-.35-.78-.78v-2.84c0-.43,.35-.78,.78-.78h5.68c.43,0,.78,.35,.78,.78v2.84c0,.43-.35,.78-.78,.78Zm-4.9-1.56h4.12v-1.28h-4.12v1.28Z"/>
    <path class="cls-2" d="M40.7,25.24h-4.26c-.43,0-.78-.35-.78-.78v-4.26c0-.43,.35-.78,.78-.78h4.26c.43,0,.78,.35,.78,.78v4.26c0,.43-.35,.78-.78,.78Zm-3.48-1.56h2.7v-2.7h-2.7v2.7Z"/>
  </g>
</svg>