<?xml version="1.0" encoding="UTF-8"?>
<svg id="Capa_3" data-name="Capa 3" xmlns="http://www.w3.org/2000/svg" viewBox="0 0 76 76">
  <defs>
    <style>
      .cls-1 {
        fill: #e4f1fc;
      }

      .cls-2 {
        fill: #1169c1;
      }
    </style>
  </defs>
  <rect class="cls-1" width="76" height="76" rx="11.24" ry="11.24"/>
  <path class="cls-2" d="M61.6,41.99c.41-.19,.67-.6,.67-1.05v-5.87c0-.45-.26-.86-.68-1.05l-4.17-1.92-1.43-3.45,1.59-4.31c.16-.43,.05-.9-.27-1.22l-4.15-4.15c-.32-.32-.8-.43-1.22-.27l-4.31,1.59-3.45-1.43-1.92-4.17c-.19-.41-.6-.68-1.05-.68h-5.87c-.45,0-.86,.26-1.05,.67l-1.92,4.17-3.45,1.43-4.31-1.59c-.43-.16-.9-.05-1.22,.27l-4.15,4.15c-.32,.32-.43,.8-.27,1.22l1.59,4.31-1.43,3.45-4.17,1.92c-.41,.19-.67,.6-.67,1.05v5.87c0,.45,.26,.86,.67,1.05l4.17,1.92,1.43,3.45-.89,2.43-3.97,3.97c-1.88,1.88-1.88,4.95,0,6.83,.91,.91,2.12,1.41,3.41,1.41s2.51-.5,3.41-1.41l3.96-3.96,2.43-.9,3.45,1.43,1.92,4.17c.19,.41,.6,.67,1.05,.67h5.87c.45,0,.86-.26,1.05-.67l1.92-4.17,2.32-.96c.97,3.35,4.06,5.8,7.72,5.8,4.43,0,8.04-3.61,8.04-8.04,0-3.66-2.46-6.75-5.8-7.72l.96-2.32,4.17-1.92h0ZM20.87,58.95c-.47,.47-1.1,.73-1.77,.73s-1.3-.26-1.77-.73c-.98-.98-.98-2.57,0-3.54l14.06-14.06c.31-.31,.42-.77,.28-1.18-.23-.7-.35-1.43-.35-2.16,0-3.83,3.12-6.95,6.95-6.95,.04,0,.08,0,.12,0l-2.62,2.63c-.45,.45-.45,1.19,0,1.64l5.18,5.18c.45,.45,1.19,.45,1.64,0l2.63-2.62s0,.08,0,.12c0,3.83-3.12,6.95-6.95,6.95-.74,0-1.46-.12-2.17-.35-.42-.14-.87-.03-1.18,.28l-14.06,14.06h0Zm6.35-20.95c0-6.1,4.96-11.06,11.06-11.06s11.06,4.96,11.06,11.06-4.96,11.06-11.06,11.06c-1.23,0-2.46-.21-3.62-.61l1.43-1.43c.72,.17,1.45,.26,2.19,.26,5.11,0,9.28-4.16,9.28-9.28,0-.99-.15-1.96-.46-2.89-.13-.38-.44-.67-.83-.77-.39-.09-.8,.02-1.09,.31l-3.39,3.38-3.54-3.54,3.38-3.39c.29-.29,.4-.7,.31-1.09s-.38-.71-.77-.83c-.93-.3-1.9-.46-2.89-.46-5.11,0-9.28,4.16-9.28,9.28,0,.74,.09,1.47,.26,2.19l-1.43,1.43c-.4-1.16-.61-2.38-.61-3.62h0Zm15.66,17.19c-.27,.11-.49,.32-.61,.59l-1.8,3.9h-4.39l-1.8-3.9c-.12-.26-.34-.47-.61-.59l-4.07-1.69,3.26-3.26c1.7,.75,3.55,1.14,5.41,1.14,7.38,0,13.38-6,13.38-13.38s-6-13.38-13.38-13.38-13.38,6-13.38,13.38c0,1.87,.39,3.72,1.14,5.41l-3.26,3.26-1.69-4.07c-.11-.27-.32-.49-.59-.61l-3.9-1.8v-4.39l3.9-1.8c.27-.12,.47-.34,.59-.61l1.78-4.29c.11-.27,.12-.57,.02-.85l-1.49-4.03,3.1-3.1,4.03,1.49c.27,.1,.58,.09,.85-.02l4.29-1.77c.27-.11,.49-.32,.61-.59l1.8-3.91h4.39l1.8,3.91c.12,.27,.34,.48,.61,.59l4.29,1.77c.27,.11,.57,.12,.85,.02l4.03-1.49,3.1,3.1-1.49,4.03c-.1,.27-.09,.58,.02,.85l1.77,4.29c.11,.27,.32,.49,.59,.61l3.91,1.8v4.39l-3.91,1.8c-.27,.12-.47,.34-.59,.61l-1.37,3.31c-4.32,.08-7.81,3.57-7.89,7.89l-3.32,1.37h0Zm17.07-1.23c0,3.15-2.57,5.72-5.72,5.72s-5.72-2.57-5.72-5.72,2.57-5.72,5.72-5.72,5.72,2.57,5.72,5.72Zm-6.79,.45l3.51-3.37c.46-.44,1.2-.43,1.64,.03,.44,.46,.43,1.2-.03,1.64l-4.33,4.16c-.22,.22-.51,.32-.8,.32s-.59-.11-.82-.34l-2.16-2.16c-.45-.45-.45-1.19,0-1.64,.45-.45,1.19-.45,1.64,0l1.36,1.36h0Z"/>
</svg>