<?xml version="1.0" encoding="UTF-8"?>
<svg id="Capa_4" data-name="Capa 4" xmlns="http://www.w3.org/2000/svg" viewBox="0 0 76 76">
  <defs>
    <style>
      .cls-1 {
        fill: #e4f1fc;
      }

      .cls-2 {
        fill: #1169c1;
      }
    </style>
  </defs>
  <rect class="cls-1" width="76" height="76" rx="11.24" ry="11.24"/>
  <g>
    <g id="g988">
      <g id="path994">
        <path class="cls-2" d="M52.08,59H23.8c-.19,0-.38-.08-.52-.22s-.22-.33-.22-.52V23.2c0-.19,.08-.38,.22-.52,.14-.14,.33-.22,.52-.22h28.28c.19,0,.38,.08,.52,.22s.22,.33,.22,.52v6.43h0c0,.41-.33,.74-.74,.74s-.74-.33-.74-.74v-5.7H24.54V57.52h26.8v-19.68c0-.41,.33-.74,.74-.74s.74,.33,.74,.74v20.42c0,.2-.08,.38-.22,.52-.14,.14-.33,.22-.52,.22Zm0-23.7c-.41,0-.74-.33-.74-.74s.33-.74,.74-.74,.74,.33,.74,.74-.33,.74-.74,.74Z"/>
      </g>
      <g id="path996">
        <path class="cls-2" d="M43.59,59h-11.31c-.41,0-.74-.33-.74-.74v-11.31c0-.41,.33-.74,.74-.74h11.31c.41,0,.74,.33,.74,.74v11.31c0,.41-.33,.74-.74,.74Zm-10.57-1.48h9.83v-9.83h-9.83v9.83Z"/>
      </g>
      <g id="g998">
        <g id="path1000">
          <path class="cls-2" d="M37.94,59c-.41,0-.74-.33-.74-.74v-11.31c0-.41,.33-.74,.74-.74s.74,.33,.74,.74v11.31c0,.41-.33,.74-.74,.74Z"/>
        </g>
      </g>
    </g>
    <g id="path1002">
      <path class="cls-2" d="M52.08,27.71H23.8c-.41,0-.74-.33-.74-.74v-3.77c0-.41,.33-.74,.74-.74h28.28c.41,0,.74,.33,.74,.74v3.77c0,.41-.33,.74-.74,.74Zm-27.54-1.48h26.8v-2.29H24.54v2.29Z"/>
    </g>
    <g id="g1006">
      <g id="path1012">
        <path class="cls-2" d="M52.08,59h-8.48c-.41,0-.74-.33-.74-.74v-4.24c0-.41,.33-.74,.74-.74h8.48c.41,0,.74,.33,.74,.74v4.24c0,.41-.33,.74-.74,.74Zm-7.74-1.48h7.01v-2.76h-7.01v2.76Z"/>
      </g>
      <g id="path1014">
        <path class="cls-2" d="M32.28,59h-8.48c-.41,0-.74-.33-.74-.74v-4.24c0-.41,.33-.74,.74-.74h8.48c.41,0,.74,.33,.74,.74v4.24c0,.41-.33,.74-.74,.74Zm-7.74-1.48h7.01v-2.76h-7.01v2.76Z"/>
      </g>
    </g>
    <g id="path1016">
      <path class="cls-2" d="M39.82,43.45h-3.77c-.41,0-.74-.33-.74-.74v-3.77c0-.41,.33-.74,.74-.74h3.77c.41,0,.74,.33,.74,.74v3.77c0,.41-.33,.74-.74,.74Zm-3.03-1.48h2.29v-2.29h-2.29v2.29Z"/>
    </g>
    <g id="path1018">
      <path class="cls-2" d="M39.82,35.44h-3.77c-.41,0-.74-.33-.74-.74v-3.77c0-.41,.33-.74,.74-.74h3.77c.41,0,.74,.33,.74,.74v3.77c0,.41-.33,.74-.74,.74Zm-3.03-1.48h2.29v-2.29h-2.29v2.29Z"/>
    </g>
    <g id="path1020">
      <path class="cls-2" d="M31.81,43.45h-3.77c-.41,0-.74-.33-.74-.74v-3.77c0-.41,.33-.74,.74-.74h3.77c.41,0,.74,.33,.74,.74v3.77c0,.41-.33,.74-.74,.74Zm-3.03-1.48h2.29v-2.29h-2.29v2.29Z"/>
    </g>
    <g id="path1022">
      <path class="cls-2" d="M31.81,35.44h-3.77c-.41,0-.74-.33-.74-.74v-3.77c0-.41,.33-.74,.74-.74h3.77c.41,0,.74,.33,.74,.74v3.77c0,.41-.33,.74-.74,.74Zm-3.03-1.48h2.29v-2.29h-2.29v2.29Z"/>
    </g>
    <g id="path1024">
      <path class="cls-2" d="M47.83,43.45h-3.77c-.41,0-.74-.33-.74-.74v-3.77c0-.41,.33-.74,.74-.74h3.77c.41,0,.74,.33,.74,.74v3.77c0,.41-.33,.74-.74,.74Zm-3.03-1.48h2.29v-2.29h-2.29v2.29Z"/>
    </g>
    <g id="path1026">
      <path class="cls-2" d="M47.83,35.44h-3.77c-.41,0-.74-.33-.74-.74v-3.77c0-.41,.33-.74,.74-.74h3.77c.41,0,.74,.33,.74,.74v3.77c0,.41-.33,.74-.74,.74Zm-3.03-1.48h2.29v-2.29h-2.29v2.29Z"/>
    </g>
    <g id="g1030">
      <g id="g1036">
        <g id="path1038">
          <path class="cls-2" d="M51.94,20.16h-2.7c-.41,0-.74-.33-.74-.74v-5.69c0-.41,.33-.74,.74-.74s.74,.33,.74,.74v4.95h1.96c.41,0,.74,.33,.74,.74s-.33,.74-.74,.74Z"/>
        </g>
      </g>
      <g id="g1040">
        <g id="path1042">
          <path class="cls-2" d="M23.93,20.16c-.41,0-.74-.33-.74-.74v-5.69c0-.41,.33-.74,.74-.74s.74,.33,.74,.74v5.69c0,.41-.33,.74-.74,.74Z"/>
        </g>
      </g>
      <g id="g1044">
        <g id="path1046">
          <path class="cls-2" d="M27.49,20.16c-.41,0-.74-.33-.74-.74v-5.69c0-.41,.33-.74,.74-.74s.74,.33,.74,.74v5.69c0,.41-.33,.74-.74,.74Z"/>
        </g>
      </g>
    </g>
    <g id="g1048">
      <g id="path1050">
        <path class="cls-2" d="M27.49,17.22h-3.55c-.41,0-.74-.33-.74-.74s.33-.74,.74-.74h3.55c.41,0,.74,.33,.74,.74s-.33,.74-.74,.74Z"/>
      </g>
    </g>
    <g id="g1054">
      <g id="g1060">
        <g id="path1062">
          <path class="cls-2" d="M46.25,20.16h-2.77c-.41,0-.74-.33-.74-.74v-5.69c0-.41,.33-.74,.74-.74h2.77c.41,0,.74,.33,.74,.74s-.33,.74-.74,.74h-2.03v4.21h2.03c.41,0,.74,.33,.74,.74s-.33,.74-.74,.74Z"/>
        </g>
      </g>
    </g>
    <g id="g1064">
      <g id="path1066">
        <path class="cls-2" d="M46.07,17.32h-2.59c-.41,0-.74-.33-.74-.74s.33-.74,.74-.74h2.59c.41,0,.74,.33,.74,.74s-.33,.74-.74,.74Z"/>
      </g>
    </g>
    <g id="g1070">
      <g id="g1076">
        <g id="path1078">
          <path class="cls-2" d="M40.67,14.48h-3.77c-.41,0-.74-.33-.74-.74s.33-.74,.74-.74h3.77c.41,0,.74,.33,.74,.74s-.33,.74-.74,.74Z"/>
        </g>
      </g>
      <g id="g1080">
        <g id="path1082">
          <path class="cls-2" d="M38.75,20.16c-.41,0-.74-.33-.74-.74v-5.51c0-.41,.33-.74,.74-.74s.74,.33,.74,.74v5.51c0,.41-.33,.74-.74,.74Z"/>
        </g>
      </g>
      <g id="g1084">
        <g id="path1086">
          <path class="cls-2" d="M32.64,20.16c-1.7,0-3.08-1.61-3.08-3.58s1.38-3.58,3.08-3.58,3.08,1.61,3.08,3.58-1.38,3.58-3.08,3.58Zm0-5.69c-.89,0-1.61,.94-1.61,2.11s.72,2.11,1.61,2.11,1.61-.94,1.61-2.11-.72-2.11-1.61-2.11Z"/>
        </g>
      </g>
    </g>
  </g>
</svg>