<?xml version="1.0" encoding="UTF-8"?>
<svg id="Capa_4" data-name="Capa 4" xmlns="http://www.w3.org/2000/svg" viewBox="0 0 76 76">
  <defs>
    <style>
      .cls-1 {
        fill: #e4f1fc;
      }

      .cls-2 {
        fill: #1169c1;
      }
    </style>
  </defs>
  <rect class="cls-1" width="76" height="76" rx="11.24" ry="11.24"/>
  <g>
    <path class="cls-2" d="M60.61,33.9h-5.56v-6.58h.2c.71,0,1.29-.58,1.29-1.29v-1.46c0-.71-.58-1.29-1.29-1.29h-8.31c-.38,0-.69,.31-.69,.69s.31,.69,.69,.69h8.22v1.27h-16.14v-1.27h5.15c.38,0,.69-.31,.69-.69s-.31-.69-.69-.69h-5.15v-1.43h.74c.7,0,1.27-.57,1.27-1.27v-1.5c0-.7-.57-1.27-1.27-1.27h-5.11c0-.09,0-.18,0-.28,0-3.6-2.93-6.53-6.53-6.53s-6.53,2.93-6.53,6.53c0,.09,0,.19,0,.28h-5.11c-.7,0-1.27,.57-1.27,1.27v1.5c0,.7,.57,1.27,1.27,1.27h.74v9.73c0,.38,.31,.69,.69,.69s.69-.31,.69-.69v-9.73s4.53-.01,4.59-.03c1.2,1.37,2.95,2.23,4.91,2.23s3.71-.87,4.91-2.23c.06,.02,4.59,.03,4.59,.03V56.61H18.62v-22.25c0-.38-.31-.69-.69-.69s-.69,.31-.69,.69v22.95c0,.38,.31,.69,.69,.69H59.31c.38,0,.69-.31,.69-.69v-11.29c0-.38-.31-.69-.69-.69s-.69,.31-.69,.69v10.6h-2.45v-15.43c0-.71-.58-1.3-1.3-1.3h-12.11c-.71,0-1.3,.58-1.3,1.3v15.43h-2.46v-18.66h19.61v5.29c0,.38,.31,.69,.69,.69s.69-.31,.69-.69v-5.29h.6c.57,0,1.03-.46,1.03-1.03v-1.99c0-.57-.46-1.03-1.03-1.03h0ZM16.61,20.46v-1.27h5.2c.12,.44,.28,.87,.48,1.27h-5.68Zm11.51,2.21c-2.83,0-5.14-2.31-5.14-5.14s2.31-5.14,5.14-5.14,5.14,2.31,5.14,5.14-2.31,5.14-5.14,5.14Zm6.31-3.47h5.2v1.27h-5.68c.2-.4,.37-.83,.48-1.27h0Zm8.43,24.99h5.27v12.11h-5.27v-12.11Zm6.66,0h5.27v12.11h-5.27v-12.11Zm-6.66-2.9h11.92v1.51h-11.92v-1.51Zm10.8-9.78h-11.04c-.07,0-.13-.06-.13-.13v-1.32c0-.07,.06-.13,.13-.13h11.04v1.57Zm0-4.17v1.21h-11.04c-.83,0-1.51,.68-1.51,1.51v1.32c0,.83,.68,1.51,1.51,1.51h11.04v1.02h-14.65v-6.58h14.65Zm6.59,9.23h-21.24v-1.27h21.24v1.27Z"/>
    <path class="cls-2" d="M31.11,15.66h-1.13v-1.13c0-.38-.31-.69-.69-.69h-2.34c-.38,0-.69,.31-.69,.69v1.13h-1.13c-.38,0-.69,.31-.69,.69v2.34c0,.38,.31,.69,.69,.69h1.13v1.13c0,.38,.31,.69,.69,.69h2.34c.38,0,.69-.31,.69-.69v-1.13h1.13c.38,0,.69-.31,.69-.69v-2.34c0-.38-.31-.69-.69-.69Zm-.69,2.34h-1.13c-.38,0-.69,.31-.69,.69v1.13h-.95v-1.13c0-.38-.31-.69-.69-.69h-1.13v-.95h1.13c.38,0,.69-.31,.69-.69v-1.13h.95v1.13c0,.38,.31,.69,.69,.69h1.13v.95Z"/>
    <path class="cls-2" d="M25.04,26.18h-2.55c-.74,0-1.35,.6-1.35,1.35v2.84h-.46c-.38,0-.69,.31-.69,.69v2.27c0,.38,.31,.69,.69,.69h6.16c.38,0,.69-.31,.69-.69v-2.27c0-.38-.31-.69-.69-.69h-.46v-2.84c0-.74-.6-1.35-1.35-1.35Zm-2.51,1.39h2.47v2.8h-2.47v-2.8Zm3.62,5.06h-4.78v-.88h4.78v.88Z"/>
    <path class="cls-2" d="M19.99,43.81c0,.38,.31,.69,.69,.69h6.16c.38,0,.69-.31,.69-.69v-2.27c0-.38-.31-.69-.69-.69h-.46v-2.84c0-.74-.6-1.35-1.35-1.35h-2.55c-.74,0-1.35,.6-1.35,1.35v2.84h-.46c-.38,0-.69,.31-.69,.69v2.27h0Zm6.16-.69h-4.78v-.88h4.78v.88Zm-3.62-5.06h2.47v2.8h-2.47v-2.8Z"/>
    <path class="cls-2" d="M33.88,26.18h-2.55c-.74,0-1.35,.6-1.35,1.35v2.84h-.46c-.38,0-.69,.31-.69,.69v2.27c0,.38,.31,.69,.69,.69h6.16c.38,0,.69-.31,.69-.69v-2.27c0-.38-.31-.69-.69-.69h-.46v-2.84c0-.74-.6-1.35-1.35-1.35Zm-2.51,1.39h2.47v2.8h-2.47v-2.8Zm3.62,5.06h-4.78v-.88h4.78v.88Z"/>
    <path class="cls-2" d="M28.83,43.81c0,.38,.31,.69,.69,.69h6.16c.38,0,.69-.31,.69-.69v-2.27c0-.38-.31-.69-.69-.69h-.46v-2.84c0-.74-.6-1.35-1.35-1.35h-2.55c-.74,0-1.35,.6-1.35,1.35v2.84h-.46c-.38,0-.69,.31-.69,.69v2.27h0Zm6.16-.69h-4.78v-.88h4.78v.88Zm-3.62-5.06h2.47v2.8h-2.47v-2.8Z"/>
    <path class="cls-2" d="M32.54,57.93h-7.68c-.41,0-.74-.33-.74-.74v-10.05c0-.41,.33-.74,.74-.74h7.68c.41,0,.74,.33,.74,.74v10.05c0,.41-.33,.74-.74,.74Zm-6.94-1.48h6.2v-8.57h-6.2v8.57Z"/>
  </g>
</svg>