<?xml version="1.0" encoding="UTF-8"?>
<svg id="Capa_4" data-name="Capa 4" xmlns="http://www.w3.org/2000/svg" viewBox="0 0 76 76">
  <defs>
    <style>
      .cls-1 {
        fill: #e4f1fc;
      }

      .cls-2 {
        fill: #1169c1;
      }
    </style>
  </defs>
  <rect class="cls-1" width="76" height="76" rx="11.24" ry="11.24"/>
  <g>
    <path class="cls-2" d="M32.63,59c-.39,0-.79-.07-1.17-.23,0,0-.01,0-.02,0-1.31-.55-2.08-1.92-1.87-3.32l2.18-14.48h-6.32c-1.13,0-2.16-.6-2.69-1.58-.54-.95-.53-2.12,.03-3.08,0,0,.01-.02,.02-.03l15.14-24.82c.72-1.2,2.16-1.76,3.52-1.36,1.35,.4,2.26,1.67,2.2,3.08l-.57,15.64,7.1-.19c1.18-.03,2.25,.6,2.81,1.65,.55,1.05,.46,2.33-.25,3.26l-9.22,12.65c-.46,.64-1.36,.78-2,.31-.64-.46-.78-1.36-.31-2l9.23-12.66s.01-.02,.02-.03c.04-.05,.04-.13,0-.2-.04-.08-.13-.14-.21-.13l-8.62,.23c-.39,.01-.78-.14-1.05-.42-.28-.28-.43-.66-.41-1.06l.63-17.16s0,0,0-.01c0-.11-.06-.19-.15-.22-.1-.03-.2,0-.25,.08,0,0,0,.01-.01,.02l-15.13,24.81c-.04,.08-.05,.17-.01,.23,0,.02,.02,.03,.03,.05,.03,.05,.1,.09,.18,.09h7.98c.42,0,.81,.18,1.08,.5s.39,.73,.33,1.14l-2.43,16.12c-.02,.11,.04,.21,.14,.25,.08,.03,.2,.01,.26-.07,0,0,0,0,0-.01l5.8-7.97c.46-.64,1.36-.78,2-.31,.64,.46,.78,1.36,.31,2l-5.8,7.96c-.59,.82-1.52,1.28-2.49,1.28Z"/>
    <path class="cls-2" d="M15.84,51.24c.8,.45,1.81,.17,2.26-.62l1.45-2.56c.45-.8,.17-1.81-.62-2.26-.8-.45-1.8-.17-2.26,.62l-1.45,2.56c-.45,.79-.17,1.8,.62,2.26h0Z"/>
    <path class="cls-2" d="M10.69,36.14c.91,0,1.65-.74,1.65-1.65s-.74-1.65-1.65-1.65h-2.94c-.91,0-1.65,.74-1.65,1.65s.74,1.65,1.65,1.65h2.94Z"/>
    <path class="cls-2" d="M16.66,22.54c.45,.79,1.46,1.07,2.26,.62,.8-.45,1.07-1.46,.62-2.26l-1.45-2.56c-.45-.8-1.46-1.07-2.26-.62-.8,.45-1.07,1.46-.62,2.26l1.45,2.56Z"/>
    <path class="cls-2" d="M59.03,46.43c-.45-.8-1.46-1.08-2.26-.62-.8,.45-1.07,1.46-.62,2.26l1.45,2.56c.45,.8,1.46,1.07,2.26,.62,.8-.45,1.07-1.46,.62-2.26l-1.45-2.56Z"/>
    <path class="cls-2" d="M67.95,36.14c.91,0,1.65-.74,1.65-1.65s-.74-1.65-1.65-1.65h-2.94c-.91,0-1.65,.74-1.65,1.65s.74,1.65,1.65,1.65h2.94Z"/>
    <path class="cls-2" d="M59.86,17.73c-.79-.45-1.8-.17-2.26,.62l-1.45,2.56c-.45,.8-.17,1.81,.62,2.26,.8,.45,1.81,.17,2.26-.62l1.45-2.56c.45-.79,.17-1.81-.62-2.26h0Z"/>
  </g>
</svg>