<?xml version="1.0" encoding="UTF-8"?>
<svg xmlns="http://www.w3.org/2000/svg" viewBox="0 0 76 76">
  <defs>
    <style>
      .cls-1 {
        fill: #e4f1fc;
      }

      .cls-2 {
        fill: #1169c1;
      }
    </style>
  </defs>
  <g id="Capa_3" data-name="Capa 3">
    <rect class="cls-1" width="76" height="76" rx="11.24" ry="11.24"/>
  </g>
  <g id="Capa_4" data-name="Capa 4">
    <g>
      <path class="cls-2" d="M38.31,25.36c.18,.18,.42,.28,.67,.28s.49-.1,.67-.28l4.85-4.85c.27-.27,.35-.68,.21-1.04-.15-.36-.49-.59-.88-.59h-1.47v-7.94c0-.52-.43-.95-.95-.95h-4.85c-.52,0-.95,.43-.95,.95v7.94h-1.47c-.39,0-.73,.23-.88,.59-.15,.36-.07,.76,.21,1.04l4.85,4.85Zm2.15-5.61s0,.06,0,.09c0,.52,.43,.95,.95,.95h.13l-2.55,2.55-2.55-2.55h.13c.52,0,.95-.43,.95-.95v-7.94h2.95v7.75s0,.06,0,.09Z"/>
      <path class="cls-2" d="M55.14,27.78H22.82c-2.31,0-4.18,1.88-4.18,4.18v29.09c0,.52,.43,.95,.95,.95s.95-.43,.95-.95v-21.67H55.95c.52,0,.95-.43,.95-.95s-.43-.95-.95-.95H20.54v-5.51c0-1.26,1.02-2.28,2.28-2.28h8.75v6.32c0,.52,.43,.95,.95,.95s.95-.43,.95-.95v-6.32h21.67c1.26,0,2.28,1.02,2.28,2.28v29.09c0,.52,.43,.95,.95,.95s.95-.43,.95-.95V31.96c0-2.31-1.88-4.18-4.18-4.18Z"/>
      <path class="cls-2" d="M54.33,31.01h-4.85c-.52,0-.95,.43-.95,.95v3.23c0,.52,.43,.95,.95,.95h4.85c.52,0,.95-.43,.95-.95v-3.23c0-.52-.43-.95-.95-.95Zm-.95,1.9v1.33h-2.95v-1.33h2.95Z"/>
      <path class="cls-2" d="M35.75,31.01c-.52,0-.95,.43-.95,.95v3.23c0,.52,.43,.95,.95,.95h10.5c.52,0,.95-.43,.95-.95v-3.23c0-.52-.43-.95-.95-.95h-10.5Zm9.55,1.9v1.33h-8.6v-1.33h8.6Z"/>
      <path class="cls-2" d="M28.48,31.15h-4.85c-.45,0-.81,.36-.81,.81s.36,.81,.81,.81h4.85c.45,0,.81-.36,.81-.81s-.36-.81-.81-.81Z"/>
      <path class="cls-2" d="M28.48,34.38h-4.85c-.45,0-.81,.36-.81,.81s.36,.81,.81,.81h4.85c.45,0,.81-.36,.81-.81s-.36-.81-.81-.81Z"/>
      <path class="cls-2" d="M38.98,42.32c-4.43,0-8.51,2.24-10.91,5.91-.36,.52-1.04,1.62-1.48,3-1.29,.13-2.3,1.23-2.3,2.55v3.23c0,1.32,1.01,2.42,2.33,2.55,.24,.72,.51,1.36,.82,1.94,.16,.31,.49,.51,.84,.51,.16,0,.31-.04,.44-.11,.46-.24,.64-.82,.4-1.29-.17-.32-.33-.66-.48-1.03h1.45c.52,0,.95-.43,.95-.95s-.43-.95-.95-.95h-3.23c-.37,0-.67-.3-.67-.67v-3.23c0-.37,.3-.67,.67-.67h4.22c-.21,.74-.32,1.51-.32,2.28,0,2.49,1.12,4.82,3.06,6.4,.2,.16,.45,.23,.7,.21,.25-.03,.48-.15,.64-.35,.16-.2,.23-.45,.21-.7-.03-.25-.15-.48-.35-.64-1.5-1.21-2.36-3-2.36-4.92,0-3.49,2.84-6.32,6.32-6.32s6.32,2.84,6.32,6.32c0,1.91-.86,3.71-2.36,4.92-.2,.16-.32,.39-.35,.64-.03,.25,.05,.5,.21,.7,.18,.22,.45,.35,.74,.35,.22,0,.43-.07,.6-.21,1.95-1.57,3.06-3.9,3.06-6.4,0-4.53-3.69-8.22-8.22-8.22h0c-2.89,0-5.59,1.55-7.07,4.04h-3.24c.19-.49,.39-.92,.58-1.26,.02-.03,.03-.06,.05-.09,0-.01,.01-.02,.02-.03,1.99-3.47,5.66-5.61,9.67-5.61,6.16,0,11.17,5.01,11.17,11.17,0,1.83-.44,3.59-1.29,5.21-.24,.46-.07,1.04,.4,1.29,.14,.07,.29,.11,.44,.11,.35,0,.68-.19,.84-.51,.99-1.87,1.51-3.98,1.51-6.1,0-7.21-5.86-13.07-13.07-13.07Z"/>
    </g>
  </g>
</svg>