<?xml version="1.0" encoding="UTF-8"?>
<svg id="Capa_4" data-name="Capa 4" xmlns="http://www.w3.org/2000/svg" viewBox="0 0 76 76">
  <defs>
    <style>
      .cls-1 {
        fill: #e4f1fc;
      }

      .cls-2 {
        fill: #1169c1;
      }
    </style>
  </defs>
  <rect class="cls-1" width="76" height="76" rx="11.24" ry="11.24"/>
  <g>
    <path class="cls-2" d="M47.86,64H27.71c-1.52,0-2.75-1.23-2.75-2.75v-26.37c0-.46,.37-.83,.83-.83,1.31,0,2.37-1.07,2.37-2.37v-6.27c0-.99,.8-1.79,1.79-1.79h15.65c.99,0,1.79,.8,1.79,1.79v6.27c0,1.31,1.07,2.37,2.37,2.37,.46,0,.83,.37,.83,.83v15.48c0,.46-.37,.83-.83,.83s-.83-.37-.83-.83v-14.73c-1.83-.39-3.21-2.01-3.21-3.96v-6.27c0-.07-.06-.12-.12-.12h-15.65c-.07,0-.12,.06-.12,.12v6.27c0,1.94-1.38,3.57-3.21,3.96v25.62c0,.6,.48,1.08,1.08,1.08h20.15c.6,0,1.08-.48,1.08-1.08v-2.61c0-.46,.37-.83,.83-.83s.83,.37,.83,.83v2.61c0,1.52-1.23,2.75-2.75,2.75Z"/>
    <path class="cls-2" d="M34.79,25.28h-3.83c-.46,0-.83-.37-.83-.83v-5.69c0-.97,.79-1.76,1.76-1.76h1.98c.97,0,1.76,.79,1.76,1.76v5.69c0,.46-.37,.83-.83,.83Zm-2.99-1.67h2.16v-4.86s-.04-.09-.09-.09h-1.98s-.09,.04-.09,.09v4.86Z"/>
    <path class="cls-2" d="M44.61,25.28h-3.83c-.46,0-.83-.37-.83-.83v-5.69c0-.97,.79-1.76,1.76-1.76h1.98c.97,0,1.76,.79,1.76,1.76v5.69c0,.46-.37,.83-.83,.83Zm-2.99-1.67h2.16v-4.86s-.04-.09-.09-.09h-1.98s-.09,.04-.09,.09v4.86Z"/>
    <path class="cls-2" d="M55.47,46.56h-5.69c-.46,0-.83-.37-.83-.83v-3.83c0-.46,.37-.83,.83-.83h5.69c.97,0,1.76,.79,1.76,1.76v1.98c0,.97-.79,1.76-1.76,1.76Zm-4.86-1.67h4.86s.09-.04,.09-.09v-1.98s-.04-.09-.09-.09h-4.86v2.16Z"/>
    <path class="cls-2" d="M25.8,46.56h-5.69c-.97,0-1.76-.79-1.76-1.76v-1.98c0-.97,.79-1.76,1.76-1.76h5.69c.46,0,.83,.37,.83,.83v3.83c0,.46-.37,.83-.83,.83Zm-5.69-3.83s-.09,.04-.09,.09v1.98s.04,.09,.09,.09h4.86v-2.16h-4.86Z"/>
    <path class="cls-2" d="M42.03,29.11h-8.48c-.46,0-.83-.37-.83-.83s.37-.83,.83-.83h8.48c.46,0,.83,.37,.83,.83s-.37,.83-.83,.83Z"/>
    <path class="cls-2" d="M37.79,56.25c-3.49,0-6.33-2.84-6.33-6.33v-3.53c0-.46,.37-.83,.83-.83h10.99c.46,0,.83,.37,.83,.83v3.53c0,1.69-.66,3.28-1.85,4.48-1.2,1.2-2.79,1.85-4.48,1.85Zm-4.66-9.02v2.69c0,2.57,2.09,4.66,4.66,4.66,1.25,0,2.42-.49,3.3-1.37,.88-.88,1.37-2.05,1.37-3.3v-2.69h-9.33Z"/>
    <path class="cls-2" d="M37.85,42.14h-.14c-1.48,0-2.68-1.2-2.68-2.68v-1.98c0-.46,.37-.83,.83-.83h3.83c.46,0,.83,.37,.83,.83v1.98c0,1.48-1.2,2.68-2.68,2.68Zm-1.15-3.83v1.15c0,.56,.45,1.01,1.01,1.01h.14c.56,0,1.01-.45,1.01-1.01v-1.15h-2.16Z"/>
    <path class="cls-2" d="M49.78,55.34c-.05,0-.11,0-.16-.02-.05-.01-.11-.03-.16-.05-.05-.02-.1-.05-.14-.08-.05-.03-.09-.06-.13-.1-.16-.15-.24-.37-.24-.59,0-.05,0-.11,.02-.16,.01-.05,.03-.11,.05-.16,.02-.05,.05-.1,.08-.14,.03-.05,.07-.09,.1-.13,.04-.04,.08-.07,.13-.1,.04-.03,.09-.06,.14-.08,.05-.02,.1-.04,.16-.05,.27-.05,.56,.03,.75,.23,.04,.04,.07,.08,.1,.13,.03,.04,.06,.09,.08,.14,.02,.05,.04,.1,.05,.16,.01,.05,.02,.11,.02,.16s0,.11-.02,.16c-.01,.05-.03,.11-.05,.16-.02,.05-.05,.1-.08,.14-.03,.05-.06,.09-.1,.13-.04,.04-.08,.07-.13,.1-.04,.03-.09,.06-.14,.08-.05,.02-.1,.04-.16,.05-.05,.01-.11,.02-.16,.02Z"/>
  </g>
</svg>