<?xml version="1.0" encoding="UTF-8"?>
<svg id="Capa_4" data-name="Capa 4" xmlns="http://www.w3.org/2000/svg" viewBox="0 0 76 76">
  <defs>
    <style>
      .cls-1 {
        fill: #e4f1fc;
      }

      .cls-2 {
        fill: #1169c1;
      }
    </style>
  </defs>
  <rect class="cls-1" width="76" height="76" rx="11.24" ry="11.24"/>
  <g>
    <path class="cls-2" d="M49.51,27.25h-.81c-.17,0-.3-.14-.3-.3,0-.08,.03-.16,.09-.21l.57-.57c1.05-1.06,1.05-2.78,0-3.84l-1.59-1.59c-1.07-1.02-2.75-1.02-3.83,0l-.57,.57c-.12,.12-.31,.12-.43,0-.06-.06-.09-.13-.09-.21v-.81c0-1.49-1.22-2.71-2.71-2.71h-2.24c-1.49,0-2.71,1.22-2.71,2.71v.81c0,.08-.03,.16-.09,.21-.06,.06-.13,.09-.21,.09s-.16-.03-.21-.09l-.58-.58c-1.07-1.02-2.75-1.02-3.83,0l-1.58,1.58c-1.05,1.06-1.05,2.78,0,3.84l.57,.57c.12,.12,.12,.31,0,.43-.06,.06-.13,.09-.21,.09h-.81c-1.49,0-2.71,1.22-2.71,2.71v2.24c0,1.49,1.22,2.71,2.71,2.71h.81c.17,0,.3,.14,.3,.3,0,.08-.03,.16-.09,.21l-.57,.57c-1.05,1.06-1.05,2.78,0,3.84l1.58,1.58c1.06,1.05,2.78,1.05,3.84,0l.57-.57c.11-.11,.31-.11,.43,0,.06,.06,.09,.13,.09,.21v.81c0,1.49,1.22,2.71,2.71,2.71h2.24c1.49,0,2.71-1.22,2.71-2.71v-.81c0-.17,.13-.3,.3-.3,.08,0,.16,.03,.21,.09l.57,.57c1.06,1.05,2.78,1.05,3.84,0l1.58-1.58c1.05-1.06,1.05-2.78,0-3.84l-.57-.57c-.06-.06-.09-.13-.09-.21,0-.08,.03-.16,.09-.21,.06-.06,.13-.09,.21-.09h.81c1.49,0,2.71-1.22,2.71-2.71v-2.24c0-1.49-1.22-2.71-2.71-2.71Zm-3.52,7.96c0,.73,.28,1.41,.8,1.92l.57,.57c.12,.12,.12,.31,0,.43l-1.58,1.58c-.12,.12-.31,.12-.43,0l-.57-.57c-1.06-1.06-2.78-1.06-3.84,0-.51,.51-.79,1.19-.79,1.92v.81c0,.17-.14,.3-.3,.3h-2.24c-.17,0-.3-.14-.3-.3v-.81c.01-1.11-.65-2.1-1.67-2.51-.34-.14-.69-.21-1.06-.21-.71,0-1.41,.3-1.9,.8l-.57,.57c-.12,.12-.31,.12-.43,0l-1.58-1.58c-.12-.12-.12-.31,0-.43l.57-.57c.51-.51,.79-1.19,.8-1.92,0-.72-.28-1.41-.79-1.92-.51-.51-1.19-.8-1.92-.8h-.81c-.17,0-.3-.14-.3-.3v-2.24c0-.17,.14-.3,.3-.3h.81c1.5,0,2.71-1.22,2.71-2.71,0-.73-.28-1.41-.8-1.92l-.57-.57c-.12-.12-.12-.31,0-.43l1.58-1.58c.12-.12,.32-.12,.43,0l.57,.57c.51,.51,1.19,.79,1.92,.79,.72,0,1.41-.28,1.92-.79,.51-.51,.79-1.19,.79-1.92v-.81c0-.17,.14-.3,.3-.3h2.24c.17,0,.3,.14,.3,.3v.81c0,1.5,1.22,2.71,2.71,2.71h0c.72,0,1.41-.28,1.92-.79l.57-.57c.12-.12,.32-.12,.43,0l1.58,1.58c.12,.12,.12,.31,0,.43l-.57,.57c-.51,.51-.79,1.19-.79,1.92,0,.72,.28,1.41,.79,1.92,.51,.51,1.19,.79,1.92,.79h.81c.17,0,.3,.14,.3,.3v2.24c0,.17-.14,.3-.3,.3h-.81c-1.49,0-2.71,1.22-2.71,2.71Z"/>
    <path class="cls-2" d="M38.73,24.33c-3.72,0-6.75,3.03-6.75,6.75s3.03,6.75,6.76,6.75c3.72,0,6.75-3.03,6.75-6.75h0c0-3.73-3.03-6.76-6.75-6.76Zm4.34,6.75c0,2.39-1.95,4.34-4.35,4.35-2.4,0-4.34-1.95-4.34-4.34s1.95-4.34,4.34-4.34,4.34,1.95,4.34,4.34Z"/>
    <path class="cls-2" d="M66.87,34.58c-.18-.34-.51-.57-.89-.63h0c-.38-.06-.76,.07-1.03,.34l-4.13,4.13c-.16,.16-.39,.26-.63,.26h0c-.24,0-.46-.09-.63-.26-.17-.17-.26-.39-.26-.63,0-.24,.09-.46,.26-.62l4.13-4.13c.23-.23,.35-.53,.35-.85,0-.32-.13-.62-.35-.85-.09-.09-.18-.16-.29-.21-1.27-.67-2.68-1-4.11-.97-.41-5.33-2.8-10.24-6.75-13.86-4.26-3.91-10.01-5.89-15.77-5.41-5.57,.44-10.64,3.02-14.27,7.26-3.63,4.25-5.39,9.65-4.95,15.22,.25,3.13,1.21,6.21,2.79,8.92,.43,.74,.45,1.64,.05,2.4l-4.19,8.26c-.15,.29-.17,.61-.07,.92,.1,.31,.31,.56,.6,.7,.33,.17,.73,.17,1.07,.01l8.84-4.23c.73-.35,1.6-.33,2.32,.06,3.29,1.68,6.99,2.46,10.68,2.24,.11,0,.22-.01,.33-.02,0,2.87,2.27,5.26,5.16,5.37,.07,0,.14,0,.22,0s.14,0,.21,0c1.5-.06,2.91-.75,3.88-1.89l8.15-9.58c4.35,1.04,8.78-1.58,9.94-5.93,.54-2.03,.3-4.16-.68-6.01Zm-15.42,5.79l-9.58,8.15c-.53,.45-.96,1-1.28,1.61-.37,.05-.73,.08-1.08,.1-3.26,.19-6.53-.49-9.44-1.98-1.38-.73-3.05-.76-4.47-.09l-5.64,2.7,2.59-5.1c.77-1.49,.73-3.25-.12-4.71-5.15-8.82-2.17-20.18,6.65-25.33,2.93-1.71,6.14-2.52,9.31-2.52,6.37,0,12.58,3.29,16.02,9.17,1.45,2.49,2.31,5.31,2.49,8.19-1.22,.41-2.34,1.1-3.25,2.01-2.05,2.03-2.88,5-2.2,7.79Zm-8.35,10.32c.1-.12,.22-.24,.34-.34l10.17-8.65c.38-.32,.52-.85,.36-1.32-.52-1.48-.43-3.08,.25-4.5,.68-1.42,1.87-2.48,3.35-3.01,.63-.22,1.29-.33,1.95-.33,.38,0,.76,.04,1.13,.11l-2.79,2.79c-.62,.62-.97,1.45-.97,2.33s.34,1.71,.97,2.33c.62,.62,1.45,.97,2.33,.97,0,0,0,0,.01,0,.87,0,1.71-.35,2.33-.97l2.79-2.79c.38,1.91-.22,3.9-1.63,5.29l-.15,.15c-1.58,1.48-3.89,1.97-5.95,1.25-.47-.16-.99-.02-1.31,.36l-8.66,10.17c-.51,.6-1.23,.97-2.02,1.04-.79,.06-1.56-.18-2.16-.7-1.25-1.06-1.4-2.94-.34-4.19Z"/>
  </g>
</svg>