<?xml version="1.0" encoding="UTF-8"?>
<svg id="Capa_4" data-name="Capa 4" xmlns="http://www.w3.org/2000/svg" viewBox="0 0 76 76">
  <defs>
    <style>
      .cls-1 {
        fill: #e4f1fc;
      }

      .cls-2 {
        fill: #1169c1;
      }
    </style>
  </defs>
  <rect class="cls-1" width="76" height="76" rx="11.24" ry="11.24"/>
  <g>
    <path class="cls-2" d="M53.04,30.3l-1.18-2.41c-.13-.26-.13-.57,0-.83l1.18-2.41c.73-1.48,.16-3.24-1.3-4.01l-2.37-1.26c-.25-.13-.44-.38-.48-.67l-.46-2.64c-.28-1.63-1.78-2.72-3.41-2.48l-2.65,.38c-.29,.04-.58-.05-.79-.26l-1.93-1.86c-1.18-1.15-3.03-1.15-4.22,0l-1.93,1.86c-.21,.2-.5,.3-.79,.26l-2.65-.38c-1.63-.24-3.13,.85-3.41,2.48l-.46,2.64c-.05,.28-.23,.53-.49,.67l-2.36,1.26c-1.46,.77-2.03,2.53-1.3,4.01l1.18,2.41c.13,.26,.13,.57,0,.83l-1.18,2.41c-.73,1.48-.16,3.24,1.31,4.01,.55,.28,2.05,1.05,2.33,1.24,.25,.16,.53,.7,.58,1.02,.06,.4,.39,2.23,.4,2.31,.25,1.48,1.51,2.51,2.97,2.51,.15,0,.29-.01,.44-.03l1.01-.14c.04,2.65,.1,9.12,.14,13.7,0,.29,.11,.56,.32,.77,.2,.2,.48,.32,.76,.32h0c.2,0,.4-.06,.57-.16l4.87-3.04,4.87,3.04c.51,.32,1.17,.16,1.49-.34,.11-.17,.16-.37,.16-.57v-13.67s.76,.11,.76,.11c1.63,.24,3.13-.85,3.41-2.48l.4-2.29c.06-.3,.24-.8,.45-.94l.03-.02s.06-.04,.09-.06l2.35-1.25c1.46-.77,2.03-2.53,1.3-4.01Zm-10.95,22.66l-3.78-2.37c-.35-.22-.8-.22-1.15,0l-3.78,2.37v-10.88s0-.95,0-.95c.04,.03,.09,.06,.13,.1l1.93,1.86c.59,.58,1.35,.86,2.11,.86,.76,0,1.52-.29,2.11-.86l1.92-1.86c.14-.14,.33-.22,.52-.25v11.98Zm-1.97-13.23l-1.93,1.87c-.37,.36-.94,.36-1.31,0l-1.93-1.86c-.57-.55-1.31-.85-2.1-.85-.14,0-.29,.01-.43,.03l-2.66,.38c-.5,.07-.97-.27-1.06-.77l-.46-2.65c-.06-.34-.19-.66-.36-.96-.02-.04-.04-.08-.07-.12-.28-.45-.67-.82-1.13-1.07l-2.37-1.26c-.45-.24-.63-.78-.4-1.24l1.18-2.41c.41-.83,.41-1.83,0-2.66l-1.18-2.41c-.23-.46-.05-1.01,.41-1.24l2.37-1.26c.82-.43,1.41-1.24,1.57-2.15l.46-2.64c.08-.5,.56-.84,1.06-.77l2.65,.38c.92,.13,1.87-.18,2.53-.82l1.93-1.87c.37-.36,.94-.36,1.31,0l1.93,1.86c.67,.65,1.61,.96,2.53,.82l2.66-.38c.5-.07,.97,.27,1.06,.77l.46,2.64c.16,.92,.74,1.72,1.56,2.15l2.37,1.26c.45,.24,.63,.78,.4,1.24l-1.18,2.41c-.41,.83-.41,1.83,0,2.66l1.18,2.41c.23,.46,.05,1.01-.41,1.24l-2.37,1.26c-.82,.43-1.41,1.24-1.57,2.15l-.46,2.64c-.09,.5-.55,.84-1.06,.77l-2.66-.38c-.92-.13-1.87,.18-2.53,.82Z"/>
    <path class="cls-2" d="M45.88,33.07c1.11-1.66,1.7-3.59,1.7-5.58h0c0-2.4-.86-4.72-2.42-6.54-.35-.45-1-.54-1.45-.2-.46,.35-.56,1-.21,1.46,.02,.03,.05,.06,.08,.09,2.85,3.32,2.47,8.34-.85,11.2-3.32,2.86-8.35,2.48-11.2-.85-2.86-3.32-2.48-8.35,.85-11.2,2.5-2.15,6.03-2.52,8.99-.95,.49,.26,1.19,.28,1.52-.18,.17-.23,.23-.54,.17-.85-.05-.27-.19-.49-.38-.62-2.12-1.41-4.71-1.85-7.29-1.25-2.54,.6-4.73,2.12-6.19,4.29-1.49,2.23-2.03,4.91-1.51,7.54s2.04,4.9,4.27,6.4c1.71,1.15,3.65,1.69,5.57,1.69,3.24,0,6.43-1.56,8.36-4.45Z"/>
    <path class="cls-2" d="M40.99,24.15s-.03,.03-.05,.05l-.02,.03-4.67,4.92-2.1-2.4c-.36-.44-1.01-.52-1.46-.17-.22,.17-.36,.42-.39,.7-.03,.28,.04,.55,.21,.77,.02,.03,.04,.05,.07,.08l2.85,3.25c.19,.22,.47,.35,.76,.36h.02c.29,0,.56-.12,.76-.33l5.49-5.78c.4-.41,.41-1.06,0-1.47-.2-.2-.46-.31-.74-.31-.28,0-.54,.11-.74,.3Z"/>
  </g>
</svg>