<?xml version="1.0" encoding="UTF-8"?>
<svg id="Capa_4" data-name="Capa 4" xmlns="http://www.w3.org/2000/svg" viewBox="0 0 76 76">
  <defs>
    <style>
      .cls-1 {
        fill: #e4f1fc;
      }

      .cls-2 {
        fill: #1169c1;
      }
    </style>
  </defs>
  <rect class="cls-1" x="0" width="76" height="76" rx="11.24" ry="11.24"/>
  <g>
    <g id="path1839">
      <path class="cls-2" d="M33.19,17.77c.68,0,1.24,.55,1.24,1.24s-.55,1.24-1.24,1.24-1.24-.55-1.24-1.24,.55-1.24,1.24-1.24"/>
    </g>
    <g id="path1879">
      <path class="cls-2" d="M43.09,20.06h-4.95c-.58,0-1.05-.47-1.05-1.05s.47-1.05,1.05-1.05h4.95c.58,0,1.05,.47,1.05,1.05s-.47,1.05-1.05,1.05Z"/>
    </g>
    <g id="path1887">
      <path class="cls-2" d="M50.68,58c-1.08,0-2.18-.54-3.35-1.64-.21-.2-.33-.48-.33-.77V31.39c0-.58,.47-1.05,1.05-1.05s1.05,.47,1.05,1.05v23.73c.51,.43,1.15,.82,1.69,.76,.38-.04,.77-.3,1.16-.78v-7.83c0-.58,.47-1.05,1.05-1.05s1.05,.47,1.05,1.05v8.18c0,.22-.07,.43-.19,.61-.82,1.16-1.79,1.81-2.86,1.91-.11,.01-.22,.02-.33,.02Z"/>
    </g>
    <g id="path1887-2" data-name="path1887">
      <path class="cls-2" d="M53,43.5c-.58,0-1.05-.47-1.05-1.05V15.11h-3.9c-.58,0-1.05-.47-1.05-1.05s.47-1.05,1.05-1.05h4.95c.58,0,1.05,.47,1.05,1.05v28.39c0,.58-.47,1.05-1.05,1.05Z"/>
    </g>
    <g id="path1891">
      <path class="cls-2" d="M48.05,32.44H28.24c-.58,0-1.05-.47-1.05-1.05V14.05c0-.58,.47-1.05,1.05-1.05h19.81c.58,0,1.05,.47,1.05,1.05V31.39c0,.58-.47,1.05-1.05,1.05Zm-18.76-2.11h17.71V15.11H29.29v15.23Z"/>
    </g>
    <g id="path1895">
      <path class="cls-2" d="M33.19,37.39H15.85c-.38,0-.72-.2-.91-.52-.19-.32-.19-.73,0-1.05l4.65-8.14-4.65-8.14c-.19-.33-.18-.73,0-1.05s.54-.52,.91-.52h12.38c.58,0,1.05,.47,1.05,1.05s-.47,1.05-1.05,1.05h-10.57l4.05,7.09c.19,.32,.19,.72,0,1.05l-4.05,7.09h14.47v-3.9c0-.58,.47-1.05,1.05-1.05s1.05,.47,1.05,1.05v4.95c0,.58-.47,1.05-1.05,1.05Z"/>
    </g>
  </g>
</svg>