<?xml version="1.0" encoding="UTF-8"?>
<svg id="Capa_4" data-name="Capa 4" xmlns="http://www.w3.org/2000/svg" viewBox="0 0 76 76">
  <defs>
    <style>
      .cls-1 {
        fill: #e4f1fc;
      }

      .cls-2 {
        fill: #1169c1;
      }
    </style>
  </defs>
  <rect class="cls-1" width="76" height="76" rx="11.24" ry="11.24"/>
  <g id="g718">
    <g id="g724">
      <g id="path726">
        <path class="cls-2" d="M54.37,60H28.93c-.4,0-.72-.32-.72-.72s.32-.72,.72-.72h25.15l2.33-2.33V16.76l-2.33-2.33H25.79l-2.33,2.33v11.39c0,.4-.32,.72-.72,.72s-.72-.32-.72-.72v-11.69c0-.19,.08-.37,.21-.51l2.75-2.75c.13-.13,.32-.21,.51-.21h28.88c.19,0,.37,.08,.51,.21l2.75,2.75c.13,.13,.21,.32,.21,.51V56.53c0,.19-.08,.37-.21,.51l-2.75,2.75c-.13,.13-.32,.21-.51,.21Zm-31.63-14.44c-.4,0-.72-.32-.72-.72v-13.74c0-.4,.32-.72,.72-.72s.72,.32,.72,.72v13.74c0,.4-.32,.72-.72,.72Z"/>
      </g>
    </g>
    <g id="g728">
      <g id="path730">
        <path class="cls-2" d="M57.13,17.18H22.74c-.4,0-.72-.32-.72-.72s.32-.72,.72-.72H57.13c.4,0,.72,.32,.72,.72s-.32,.72-.72,.72Z"/>
      </g>
    </g>
    <g id="g732">
      <g id="path734">
        <path class="cls-2" d="M57.13,25.43H22.74c-.4,0-.72-.32-.72-.72s.32-.72,.72-.72H57.13c.4,0,.72,.32,.72,.72s-.32,.72-.72,.72Z"/>
      </g>
    </g>
    <g id="g736">
      <g id="path738">
        <path class="cls-2" d="M39.93,54.18c-6.71,0-12.18-5.46-12.18-12.18s5.46-12.18,12.18-12.18,12.18,5.46,12.18,12.18-5.46,12.18-12.18,12.18Zm0-22.92c-5.92,0-10.75,4.82-10.75,10.75s4.82,10.74,10.75,10.74,10.74-4.82,10.74-10.74-4.82-10.75-10.74-10.75Z"/>
      </g>
    </g>
    <g id="g740">
      <g id="path742">
        <path class="cls-2" d="M39.93,51.43c-5.2,0-9.43-4.23-9.43-9.43s4.23-9.43,9.43-9.43,9.43,4.23,9.43,9.43c0,1.89-.56,3.71-1.61,5.28-.22,.33-.67,.41-.99,.19-.33-.22-.41-.67-.19-.99,.89-1.32,1.37-2.87,1.37-4.47,0-4.41-3.59-8-8-8s-8,3.59-8,8,3.59,8,8,8c1.9,0,3.75-.68,5.19-1.91,.3-.26,.75-.22,1.01,.08,.26,.3,.22,.75-.08,1.01-1.7,1.46-3.88,2.26-6.12,2.26Z"/>
      </g>
    </g>
    <g id="g744">
      <g id="path746">
        <path class="cls-2" d="M47.78,44.09h-6.47c-.19,0-.37-.08-.51-.21l-2.54-2.54h-6.37c-.4,0-.72-.32-.72-.72s.32-.72,.72-.72h6.66c.19,0,.37,.08,.51,.21l2.54,2.54h6.18c.4,0,.72,.32,.72,.72s-.32,.72-.72,.72Z"/>
      </g>
    </g>
    <g id="g748">
      <g id="path750">
        <path class="cls-2" d="M53,22.68c-1.15,0-2.09-.94-2.09-2.09s.94-2.09,2.09-2.09,2.09,.94,2.09,2.09-.94,2.09-2.09,2.09Zm0-2.75c-.36,0-.66,.3-.66,.66s.3,.66,.66,.66,.66-.3,.66-.66-.3-.66-.66-.66Z"/>
      </g>
    </g>
    <g id="g752">
      <g id="path754">
        <path class="cls-2" d="M47.5,22.68c-1.15,0-2.09-.94-2.09-2.09s.94-2.09,2.09-2.09,2.09,.94,2.09,2.09-.94,2.09-2.09,2.09Zm0-2.75c-.36,0-.66,.3-.66,.66s.3,.66,.66,.66,.66-.3,.66-.66-.3-.66-.66-.66Z"/>
      </g>
    </g>
    <g id="g756">
      <g id="path758">
        <path class="cls-2" d="M42,22.68c-1.15,0-2.09-.94-2.09-2.09s.94-2.09,2.09-2.09,2.09,.94,2.09,2.09-.94,2.09-2.09,2.09Zm0-2.75c-.36,0-.66,.3-.66,.66s.3,.66,.66,.66,.66-.3,.66-.66-.3-.66-.66-.66Z"/>
      </g>
    </g>
    <g id="path760">
      <path class="cls-2" d="M33.75,22.68h-8.25c-.4,0-.72-.32-.72-.72v-2.75c0-.4,.32-.72,.72-.72h8.25c.4,0,.72,.32,.72,.72v2.75c0,.4-.32,.72-.72,.72Zm-7.54-1.43h6.82v-1.32h-6.82v1.32Z"/>
    </g>
    <g id="g762">
      <g id="path764">
        <path class="cls-2" d="M48.54,41.34h-5.5c-.4,0-.72-.32-.72-.72s.32-.72,.72-.72h5.5c.4,0,.72,.32,.72,.72s-.32,.72-.72,.72Z"/>
      </g>
    </g>
    <g id="g766">
      <g id="path768">
        <path class="cls-2" d="M24.43,60H14.02c-.92,0-1.77-.45-2.28-1.22l-.02-.02c-.62-.92-.62-2.12-.01-3.05l.63-.95c.22-.33,.66-.42,.99-.2,.33,.22,.42,.66,.2,.99l-.63,.95c-.29,.44-.29,1.02,0,1.46l.02,.02c.24,.36,.65,.58,1.09,.58h10.41c.43,0,.84-.21,1.08-.57,.3-.44,.31-1.01,.02-1.46l-.64-.99c-.21-.33-.12-.78,.21-.99,.33-.21,.78-.12,.99,.21l.64,.99c.6,.94,.58,2.13-.05,3.05-.51,.74-1.36,1.19-2.26,1.19Z"/>
      </g>
    </g>
    <g id="g770">
      <g id="path772">
        <path class="cls-2" d="M24.4,55.87h-6.06c-.4,0-.72-.32-.72-.72s.32-.72,.72-.72h6.06c.45,0,.86-.22,1.11-.59h0c.3-.46,.3-1.04,0-1.49h0c-.25-.39-.66-.61-1.11-.61H14.04c-.45,0-.87,.22-1.11,.6l-.02,.03c-.3,.45-.29,1.03,0,1.48,.25,.37,.66,.59,1.11,.59h1.66c.4,0,.72,.32,.72,.72s-.32,.72-.72,.72h-1.66c-.92,0-1.78-.45-2.29-1.22-.63-.93-.64-2.13-.02-3.07l.02-.03c.51-.78,1.38-1.25,2.31-1.25h10.36c.93,0,1.79,.46,2.3,1.23h0c.62,.95,.62,2.15,0,3.08h0c-.51,.78-1.37,1.24-2.3,1.24Z"/>
      </g>
    </g>
    <g id="g774">
      <g id="path776">
        <path class="cls-2" d="M12.93,51.75c-.23,0-.46-.11-.6-.32l-.63-.96c-.61-.94-.6-2.14,.03-3.06,.51-.76,1.37-1.21,2.28-1.21h10.38c.93,0,1.79,.46,2.3,1.24l.02,.02c.62,.93,.61,2.14-.01,3.06l-.61,.92c-.22,.33-.67,.42-.99,.19-.33-.22-.42-.67-.19-.99l.61-.91c.3-.45,.3-1.03,0-1.48l-.02-.02c-.25-.37-.66-.6-1.11-.6H14.02c-.44,0-.85,.22-1.1,.58-.3,.45-.31,1.02-.01,1.48l.63,.96c.22,.33,.12,.77-.21,.99-.12,.08-.26,.12-.39,.12Z"/>
      </g>
    </g>
    <g id="g778">
      <g id="path780">
        <path class="cls-2" d="M57.13,57.25h-6.88c-.4,0-.72-.32-.72-.72s.32-.72,.72-.72h6.88c.4,0,.72,.32,.72,.72s-.32,.72-.72,.72Z"/>
      </g>
    </g>
    <g id="g782">
      <g id="path784">
        <path class="cls-2" d="M34.52,57.94h-1.38c-.4,0-.72-.32-.72-.72s.32-.72,.72-.72h1.38c.4,0,.72,.32,.72,.72s-.32,.72-.72,.72Zm-3.97,0h-1.38c-.4,0-.72-.32-.72-.72s.32-.72,.72-.72h1.38c.4,0,.72,.32,.72,.72s-.32,.72-.72,.72Zm24.51-29.75h-5.5c-.4,0-.72-.32-.72-.72s.32-.72,.72-.72h5.5c.4,0,.72,.32,.72,.72s-.32,.72-.72,.72Zm-8.18,0h-1.38c-.4,0-.72-.32-.72-.72s.32-.72,.72-.72h1.38c.4,0,.72,.32,.72,.72s-.32,.72-.72,.72Z"/>
      </g>
    </g>
  </g>
</svg>