<?xml version="1.0" encoding="UTF-8"?>
<svg id="Capa_3" data-name="Capa 3" xmlns="http://www.w3.org/2000/svg" viewBox="0 0 32 32">
  <defs>
    <style>
      .cls-1 {
        fill: #fff;
      }

      .cls-2 {
        fill: #166ace;
      }
    </style>
  </defs>
  <rect class="cls-2" width="32" height="32" rx="6.98" ry="6.98"/>
  <g>
    <path class="cls-1" d="M11.7,15.69h-2.41c-.03-.25-.1-.47-.2-.67-.1-.2-.23-.37-.4-.51-.16-.14-.36-.25-.58-.33s-.47-.11-.74-.11c-.48,0-.89,.12-1.23,.35-.35,.23-.61,.57-.79,1.02-.18,.44-.28,.98-.28,1.61s.09,1.2,.28,1.64c.19,.44,.45,.77,.79,1,.34,.22,.75,.33,1.22,.33,.26,0,.5-.03,.72-.1,.22-.07,.41-.17,.57-.3,.17-.13,.3-.29,.41-.48,.11-.19,.18-.4,.22-.64h2.41c-.04,.45-.17,.88-.38,1.3-.21,.42-.5,.81-.86,1.16-.37,.35-.81,.62-1.34,.83-.52,.21-1.13,.31-1.8,.31-.89,0-1.69-.2-2.4-.59s-1.26-.97-1.67-1.72c-.41-.75-.61-1.67-.61-2.75s.21-2,.62-2.76c.41-.75,.97-1.33,1.68-1.72s1.5-.59,2.37-.59c.6,0,1.15,.08,1.66,.25s.95,.41,1.34,.72c.39,.32,.7,.7,.94,1.16s.39,.98,.45,1.58Z"/>
    <path class="cls-1" d="M15.44,21.98h-3.65V12.12h3.64c1,0,1.87,.2,2.6,.59,.73,.39,1.29,.96,1.68,1.7,.4,.74,.59,1.62,.59,2.64s-.2,1.91-.59,2.65-.95,1.3-1.68,1.7c-.73,.39-1.59,.59-2.6,.59Zm-1.26-2.03h1.17c.55,0,1.02-.09,1.4-.28,.38-.19,.67-.49,.87-.92,.2-.42,.3-.99,.3-1.7s-.1-1.28-.3-1.7c-.2-.42-.49-.73-.88-.92-.39-.19-.86-.28-1.43-.28h-1.14v5.8Z"/>
    <path class="cls-1" d="M29.38,15.69h-2.41c-.03-.25-.1-.47-.2-.67-.1-.2-.23-.37-.4-.51-.16-.14-.36-.25-.58-.33s-.47-.11-.74-.11c-.48,0-.89,.12-1.23,.35-.35,.23-.61,.57-.79,1.02-.18,.44-.28,.98-.28,1.61s.09,1.2,.28,1.64c.19,.44,.45,.77,.79,1,.34,.22,.75,.33,1.22,.33,.26,0,.5-.03,.72-.1,.22-.07,.41-.17,.57-.3,.17-.13,.3-.29,.41-.48,.11-.19,.18-.4,.22-.64h2.41c-.04,.45-.17,.88-.38,1.3-.21,.42-.5,.81-.86,1.16-.37,.35-.81,.62-1.34,.83-.52,.21-1.13,.31-1.8,.31-.89,0-1.69-.2-2.4-.59s-1.26-.97-1.67-1.72c-.41-.75-.61-1.67-.61-2.75s.21-2,.62-2.76c.41-.75,.97-1.33,1.68-1.72s1.5-.59,2.37-.59c.6,0,1.15,.08,1.66,.25s.95,.41,1.34,.72c.39,.32,.7,.7,.94,1.16s.39,.98,.45,1.58Z"/>
  </g>
</svg>