<?xml version="1.0" encoding="UTF-8"?>
<svg xmlns="http://www.w3.org/2000/svg" viewBox="0 0 76 76">
  <defs>
    <style>
      .cls-1 {
        fill: #e4f1fc;
      }

      .cls-2 {
        fill: #1169c1;
      }
    </style>
  </defs>
  <g id="Capa_3" data-name="Capa 3">
    <rect class="cls-1" width="76" height="76" rx="11.24" ry="11.24"/>
  </g>
  <g id="Capa_4" data-name="Capa 4">
    <g>
      <path class="cls-2" d="M61.54,36.19c-.76-.32-1.64-.14-2.22,.44l-.33,.33v-5.46c0-3.37-2.73-6.1-6.1-6.1H24.67c-.67-2.68-3.39-4.31-6.07-3.64-2.23,.56-3.8,2.56-3.79,4.86v26.57s.02,.09,.03,.14c.05,2.72,2.27,4.89,4.99,4.88h17.93l-.33,.33c-.79,.79-.79,2.08,0,2.88,.38,.38,.9,.6,1.44,.6h19.46c2.47,0,4.47-2.01,4.47-4.48v-19.46c0-.82-.49-1.57-1.25-1.88ZM19.82,24.03c1.42,0,2.58,1.15,2.58,2.58v22.27c-.38-.22-.79-.39-1.21-.5h-.04c-.86-.25-1.77-.26-2.64-.04-.44,.12-.87,.3-1.26,.54V26.61c0-1.42,1.15-2.57,2.58-2.58Zm-2.04,30.72c-.36-.46-.55-1.04-.53-1.63,0-.07,.01-.14,.02-.21,.01-.11,.03-.22,.05-.33,.03-.1,.06-.2,.09-.3,.02-.07,.06-.14,.09-.21,.05-.11,.11-.22,.18-.33,.01-.02,.03-.04,.05-.06,.17-.24,.37-.44,.61-.61,.02-.01,.04-.03,.05-.04,.11-.07,.22-.13,.34-.18,.07-.03,.13-.06,.2-.08,.09-.04,.19-.07,.29-.09,.19-.05,.39-.07,.59-.08h.03c.24,0,.48,.05,.71,.12,.06,.02,.11,.03,.16,.05,.22,.08,.43,.2,.63,.34,.05,.04,.11,.08,.16,.13,.08,.07,.16,.15,.23,.22,.05,.06,.1,.12,.15,.19,.06,.08,.11,.17,.16,.25,.04,.07,.08,.14,.12,.21,.04,.1,.08,.21,.11,.32,.02,.07,.05,.13,.06,.2,.04,.18,.06,.37,.06,.55,0,.67,.55,1.22,1.22,1.22s1.22-.55,1.22-1.22V27.83h28.07c2.02,0,3.66,1.64,3.66,3.66v7.9l-16.37,16.37H19.82c-.8,0-1.55-.37-2.04-1Zm42.58,2.77c0,1.12-.91,2.03-2.03,2.03h-18.48l20.51-20.51v18.48Z"/>
      <path class="cls-2" d="M47.56,56.36c.19,.46,.63,.75,1.13,.75h8.01c.67,0,1.22-.55,1.22-1.22v-8.01c0-.67-.55-1.22-1.22-1.22-.32,0-.63,.13-.86,.36l-8.01,8.01c-.35,.35-.45,.87-.27,1.33Zm7.92-5.53v3.84h-3.84l3.84-3.84Z"/>
      <path class="cls-2" d="M53.77,23.11c.42,0,.84-.1,1.22-.28l5.14-2.44c1.01-.48,1.45-1.7,.96-2.71-.2-.42-.54-.76-.96-.96l-5.13-2.44c-.38-.18-.8-.27-1.23-.27H29.39c-2.52,0-4.56,2.04-4.56,4.56s2.04,4.56,4.56,4.56h24.38Zm-1.22-2.45h-19.48v-4.23h19.48v4.23Zm2.43-.54v-3.15l3.32,1.58-3.32,1.58Zm-27.71-1.58c0-1.17,.95-2.12,2.12-2.12h1.24v4.23h-1.25c-1.17,0-2.11-.95-2.11-2.12Z"/>
      <path class="cls-2" d="M29,34.86h23.38c.67,0,1.22-.55,1.22-1.22s-.55-1.22-1.22-1.22H29c-.67,0-1.22,.55-1.22,1.22s.55,1.22,1.22,1.22Z"/>
      <path class="cls-2" d="M29,40.3h17.52c.67,0,1.22-.55,1.22-1.22s-.55-1.22-1.22-1.22H29c-.67,0-1.22,.55-1.22,1.22s.55,1.22,1.22,1.22Z"/>
      <path class="cls-2" d="M29,45.73h12.56c.67,0,1.22-.55,1.22-1.22s-.55-1.22-1.22-1.22h-12.56c-.67,0-1.22,.55-1.22,1.22s.55,1.22,1.22,1.22Z"/>
      <path class="cls-2" d="M38.31,48.74h-9.31c-.67,0-1.22,.55-1.22,1.22s.55,1.22,1.22,1.22h9.31c.67,0,1.22-.55,1.22-1.22s-.55-1.22-1.22-1.22Z"/>
    </g>
  </g>
</svg>