<?xml version="1.0" encoding="UTF-8"?>
<svg id="Capa_4" data-name="Capa 4" xmlns="http://www.w3.org/2000/svg" viewBox="0 0 76 76">
  <defs>
    <style>
      .cls-1 {
        fill: #fff;
      }

      .cls-2 {
        fill: #e4f1fc;
      }

      .cls-3 {
        fill: #1169c1;
      }
    </style>
  </defs>
  <rect class="cls-2" width="76" height="76" rx="11.24" ry="11.24"/>
  <path class="cls-3" d="M35.62,45.3c-.62,0-1.21-.24-1.64-.68l-5.77-5.77c-.91-.91-.91-2.38,0-3.29,.91-.91,2.38-.91,3.29,0l4.12,4.12,8.04-8.04c.91-.91,2.38-.91,3.29,0,.91,.91,.91,2.38,0,3.29l-9.68,9.68c-.44,.44-1.03,.68-1.64,.68Z"/>
  <g>
    <path class="cls-3" d="M56,37.02c0,1.98-2.05,3.62-2.64,5.41s.08,4.38-1.05,5.93c-1.14,1.56-3.76,1.69-5.32,2.83-1.55,1.12-2.47,3.58-4.33,4.19s-3.98-.84-5.96-.84-4.17,1.43-5.96,.84c-1.86-.6-2.78-3.06-4.33-4.19-1.56-1.14-4.18-1.26-5.32-2.83-1.12-1.55-.45-4.07-1.05-5.93-.58-1.79-2.64-3.43-2.64-5.41s2.05-3.62,2.64-5.41c.6-1.86-.08-4.38,1.05-5.93s3.76-1.69,5.32-2.83,2.47-3.58,4.33-4.19c1.79-.58,3.98,.84,5.96,.84s4.17-1.43,5.96-.84,2.78,3.06,4.33,4.19c1.56,1.14,4.18,1.26,5.32,2.83,1.12,1.55,.45,4.07,1.05,5.93,.58,1.79,2.64,3.43,2.64,5.41Z"/>
    <path class="cls-1" d="M34.14,45.24c-.62,0-1.21-.25-1.65-.68l-5.78-5.78c-.91-.91-.91-2.39,0-3.3s2.39-.91,3.3,0l4.13,4.13,8.06-8.06c.91-.91,2.39-.91,3.3,0,.91,.91,.91,2.39,0,3.3l-9.71,9.71c-.44,.44-1.03,.68-1.65,.68Z"/>
  </g>
</svg>